<?xml version="1.0" encoding="UTF-8" standalone="no"?>
<!-- Created with Inkscape (http://www.inkscape.org/) -->

<svg
   version="1.1"
   id="svg1"
   width="100"
   height="100"
   viewBox="0 0 99.999997 100"
   sodipodi:docname="interactmsz-404.svg"
   inkscape:version="1.4.2 (ebf0e940d0, 2025-05-08)"
   xmlns:inkscape="http://www.inkscape.org/namespaces/inkscape"
   xmlns:sodipodi="http://sodipodi.sourceforge.net/DTD/sodipodi-0.dtd"
   xmlns="http://www.w3.org/2000/svg"
   xmlns:svg="http://www.w3.org/2000/svg">
  <defs
     id="defs1">
    <inkscape:path-effect
       effect="mirror_symmetry"
       start_point="47.250002,3"
       end_point="47.250002,103"
       center_point="47.250002,53"
       id="path-effect44"
       is_visible="true"
       lpeversion="1.2"
       lpesatellites=""
       mode="vertical"
       discard_orig_path="false"
       fuse_paths="false"
       oposite_fuse="false"
       split_items="false"
       split_open="false"
       link_styles="false" />
    <clipPath
       clipPathUnits="userSpaceOnUse"
       id="clipPath2">
      <path
         d="M 0,162 H 444.454 V 0 H 0 Z"
         transform="translate(-438.1458,-82.897491)"
         id="path2" />
    </clipPath>
    <clipPath
       clipPathUnits="userSpaceOnUse"
       id="clipPath3">
      <path
         d="M 0,0 H 188.5824 V 68.7384 H 0 Z"
         transform="matrix(1.3333333,0,0,1.3333333,314.448,119.9232)"
         id="path3" />
    </clipPath>
    <clipPath
       clipPathUnits="userSpaceOnUse"
       id="clipPath4">
      <path
         d="M 0,0 H 188.5824 V 68.7384 H 0 Z"
         transform="matrix(2.3568174,0,0,-2.3567619,-366.1117,33.31934)"
         id="path4" />
    </clipPath>
    <clipPath
       clipPathUnits="userSpaceOnUse"
       id="clipPath5">
      <path
         d="M 0,0 H 188.5824 V 68.7384 H 0 Z"
         transform="matrix(2.3568174,0,0,-2.3567619,-96.912303,96.727942)"
         id="path5" />
    </clipPath>
    <clipPath
       clipPathUnits="userSpaceOnUse"
       id="clipPath6">
      <path
         d="M 0,0 H 188.5824 V 68.7384 H 0 Z"
         transform="matrix(2.3568174,0,0,-2.3567619,-53.753096,63.61334)"
         id="path6" />
    </clipPath>
    <clipPath
       clipPathUnits="userSpaceOnUse"
       id="clipPath7">
      <path
         d="M 0,0 H 188.5824 V 68.7384 H 0 Z"
         transform="matrix(2.3568174,0,0,-2.3567619,-19.312799,49.255835)"
         id="path7" />
    </clipPath>
    <clipPath
       clipPathUnits="userSpaceOnUse"
       id="clipPath8">
      <path
         d="M 0,0 H 188.5824 V 68.7384 H 0 Z"
         transform="matrix(2.3568174,0,0,-2.3567619,-231.2875,71.43495)"
         id="path8" />
    </clipPath>
    <clipPath
       clipPathUnits="userSpaceOnUse"
       id="clipPath9">
      <path
         d="M 0,0 H 188.5824 V 68.7384 H 0 Z"
         transform="matrix(2.3568174,0,0,-2.3567619,-274.542,96.727942)"
         id="path9" />
    </clipPath>
    <clipPath
       clipPathUnits="userSpaceOnUse"
       id="clipPath10">
      <path
         d="M 0,0 H 188.5824 V 68.7384 H 0 Z"
         transform="matrix(2.3568174,0,0,-2.3567619,-191.9444,62.896236)"
         id="path10" />
    </clipPath>
    <clipPath
       clipPathUnits="userSpaceOnUse"
       id="clipPath11">
      <path
         d="M 0,0 H 188.5824 V 68.7384 H 0 Z"
         transform="matrix(2.3568174,0,0,-2.3567619,-138.5368,76.021745)"
         id="path11" />
    </clipPath>
    <clipPath
       clipPathUnits="userSpaceOnUse"
       id="clipPath12">
      <path
         d="M 0,0 H 188.5824 V 68.7384 H 0 Z"
         transform="matrix(2.3568174,0,0,-2.3567619,-167.10899,63.569646)"
         id="path12" />
    </clipPath>
    <clipPath
       clipPathUnits="userSpaceOnUse"
       id="clipPath1">
      <path
         d="M -167.10899,63.569646 H 277.34528 V -98.430397 h -444.45427 z"
         id="path24"
         style="stroke-width:2.35678" />
    </clipPath>
    <clipPath
       clipPathUnits="userSpaceOnUse"
       id="clipPath24">
      <path
         d="M -138.5368,76.021745 H 305.91747 V -85.978298 H -138.5368 Z"
         id="path25"
         style="stroke-width:2.35678" />
    </clipPath>
    <clipPath
       clipPathUnits="userSpaceOnUse"
       id="clipPath25">
      <path
         d="M -191.9444,62.896236 H 252.50987 V -99.103806 H -191.9444 Z"
         id="path26"
         style="stroke-width:2.35678" />
    </clipPath>
    <clipPath
       clipPathUnits="userSpaceOnUse"
       id="clipPath26">
      <path
         d="M -274.542,96.727942 H 169.91227 V -65.2721 H -274.542 Z"
         id="path27"
         style="stroke-width:2.35678" />
    </clipPath>
    <clipPath
       clipPathUnits="userSpaceOnUse"
       id="clipPath27">
      <path
         d="M -231.2875,71.43495 H 213.16677 V -90.565093 H -231.2875 Z"
         id="path28"
         style="stroke-width:2.35678" />
    </clipPath>
    <clipPath
       clipPathUnits="userSpaceOnUse"
       id="clipPath28">
      <path
         d="M -19.312799,49.255835 H 425.14147 V -112.74421 H -19.312799 Z"
         id="path29"
         style="stroke-width:2.35678" />
    </clipPath>
    <clipPath
       clipPathUnits="userSpaceOnUse"
       id="clipPath29">
      <path
         d="M -53.753096,63.61334 H 390.70117 V -98.386702 H -53.753096 Z"
         id="path30"
         style="stroke-width:2.35678" />
    </clipPath>
    <clipPath
       clipPathUnits="userSpaceOnUse"
       id="clipPath30">
      <path
         d="M -96.912303,96.727942 H 347.54197 V -65.2721 H -96.912303 Z"
         id="path31"
         style="stroke-width:2.35678" />
    </clipPath>
    <clipPath
       clipPathUnits="userSpaceOnUse"
       id="clipPath31">
      <path
         d="M -366.1117,33.31934 H 78.342574 V -128.6807 H -366.1117 Z"
         id="path32"
         style="stroke-width:2.35678" />
    </clipPath>
    <clipPath
       clipPathUnits="userSpaceOnUse"
       id="clipPath32">
      <path
         d="m 314.448,119.9232 h 251.44319 v 91.6512 H 314.448 Z"
         id="path33"
         style="stroke-width:1.33333" />
    </clipPath>
  </defs>
  <sodipodi:namedview
     id="namedview1"
     pagecolor="#ffffff"
     bordercolor="#000000"
     borderopacity="0.25"
     inkscape:showpageshadow="2"
     inkscape:pageopacity="0.0"
     inkscape:pagecheckerboard="0"
     inkscape:deskcolor="#d1d1d1"
     inkscape:zoom="4"
     inkscape:cx="36.375"
     inkscape:cy="22.125"
     inkscape:window-width="1920"
     inkscape:window-height="1008"
     inkscape:window-x="0"
     inkscape:window-y="0"
     inkscape:window-maximized="1"
     inkscape:current-layer="g1">
    <inkscape:page
       x="0"
       y="0"
       inkscape:label="1"
       id="page1"
       width="100"
       height="100"
       margin="0"
       bleed="0" />
  </sodipodi:namedview>
  <g
     id="g1"
     inkscape:groupmode="layer"
     inkscape:label="1">
    <g
       clip-path="url(#clipPath32)"
       id="g14"
       transform="translate(-311.08482,-115.30982)">
      <path
         id="path14"
         clip-path="url(#clipPath2)"
         style="fill:#0fa2e2;fill-opacity:1;fill-rule:nonzero;stroke:none"
         d="m -72.05183,69.964858 c -0.83975,0 -1.673849,-0.03928 -2.330349,-0.124282 l -0.210595,-0.01036 -0.09321,-0.176066 c -1.839,-3.068 -2.874418,-7.056824 -2.941418,-10.974824 -0.541,-0.071 -4.320841,-0.532412 -4.867841,-0.621412 -1.081,3.778 -3.120314,7.373996 -5.703314,9.876996 l -0.144999,0.144996 -0.210595,-0.03107 c -1.391,-0.206 -3.313889,-0.720849 -4.501889,-1.204849 l -0.179524,-0.0794 -0.06905,-0.179519 c -0.487,-1.766 -0.749164,-3.710014 -0.749164,-5.679014 0,-1.901 0.303164,-3.856441 0.749164,-5.720441 -0.473,-0.203 -4.100199,-1.7649 -4.588199,-1.9609 -2.034,3.346 -4.916017,6.281283 -8.044017,8.047283 l -0.16917,0.09666 -0.19679,-0.06559 c -1.202,-0.528 -2.94172,-1.530913 -4.04272,-2.357913 l -0.17262,-0.103568 v -0.521296 c 0,-3.508 1.08578,-7.366449 2.95178,-10.712449 -0.406,-0.337 -3.13559,-2.471258 -3.54559,-2.803258 -2.811,2.717 -6.36677,4.808989 -9.87377,5.716989 l -0.17953,0.03798 -0.13464,-0.131187 c -1.076,-0.806 -2.5218,-2.222935 -3.3488,-3.296935 l -0.12083,-0.155353 0.0449,-0.186424 c 0.877,-3.482 2.96715,-7.0469 5.67915,-9.8839 -0.296,-0.416 -2.67356,-3.51106 -3.00356,-3.93906 -3.401,1.902 -7.36335,3.023419 -10.99235,2.972419 l -0.17952,-0.01036 -0.12083,-0.158806 c -0.793,-1.056 -1.79861,-2.764343 -2.34761,-4.063343 l -0.0794,-0.169162 0.0967,-0.176066 c 1.739,-3.12 4.68157,-6.034902 8.04057,-8.074902 -0.183,-0.479 -1.55907,-3.835264 -1.77107,-4.322264 -3.861,0.956 -7.97508,0.966477 -11.41008,-0.03452 l -0.18643,-0.04833 -0.0656,-0.16571 c -0.507,-1.203 -1.0325,-3.102854 -1.2325,-4.532854 l -0.0242,-0.193328 0.13809,-0.151901 c 2.507,-2.577 6.10787,-4.6177522 9.86687,-5.6617522 l 7.21545,-0.010357 A 54.088961,54.087686 0 0 0 -72.069081,52.199389 54.088961,54.087686 0 0 0 -19.009617,8.0135551 l 7.205095,-0.010357 c 3.7549997,1.063 7.3517759,3.1000849 9.8737759,5.7100849 l 0.13119,0.124282 -0.037976,0.200233 c -0.186,1.399 -0.7194245,3.347402 -1.2014245,4.529402 l -0.079404,0.179519 -0.1898803,0.04488 c -3.454,0.986 -7.5879131,0.96 -11.3859131,0 -0.181,0.487 -1.587328,3.877335 -1.788328,4.353335 3.344,2.04 6.279568,4.932545 8.040568,8.064545 l 0.096666,0.151901 -0.069047,0.193328 c -0.506,1.204 -1.525254,2.952438 -2.337254,4.056438 l -0.113928,0.151901 h -0.207142 c -3.554,0.077 -7.521963,-1.01247 -11.019963,-2.89647 -0.307,0.429 -2.586538,3.394874 -2.896538,3.807874 2.727,2.81 4.809314,6.373734 5.703314,9.859734 l 0.05179,0.193328 -0.134642,0.148449 c -0.813,1.07 -2.227108,2.507267 -3.290108,3.345267 l -0.145,0.110473 -0.200237,-0.02762 c -3.495,-0.885 -7.040967,-2.978371 -9.859967,-5.689371 -0.432,0.33 -3.385868,2.646134 -3.814868,2.993134 1.883,3.323 2.986299,7.167449 2.986299,10.712449 0,0.099 -0.01726,0.479868 -0.01726,0.479868 l -0.151905,0.113926 c -1.09,0.857 -2.818795,1.847912 -4.073795,2.357912 l -0.169167,0.06214 -0.158809,-0.08631 c -3.135,-1.744 -6.01121,-4.660403 -8.03021,-8.002403 -0.505,0.196 -4.09939,1.706567 -4.57439,1.912567 0.475,1.883 0.766426,3.823869 0.766426,5.761869 0,1.95 -0.232426,3.870968 -0.766426,5.609968 l -0.04488,0.179519 -0.193332,0.07595 c -1.185,0.51 -3.08408,1.030467 -4.48808,1.232467 l -0.210595,0.03107 -0.124285,-0.13464 c -2.594,-2.515 -4.628767,-6.097282 -5.706767,-9.856282 -0.534,0.089 -4.252507,0.548603 -4.819507,0.607603 -0.049,3.896 -1.097776,7.887633 -2.951776,10.988633 l -0.09321,0.176066 -0.196785,0.01036 c -0.6705,0.085 -1.514766,0.124282 -2.354516,0.124282 z"
         transform="matrix(0.56573467,0,0,-0.565748,401.85192,198.20779)" />
    </g>
    <path
       style="opacity:1;fill:#0fa2e2;fill-opacity:1;stroke-width:0.566;stroke-dasharray:none"
       id="path44"
       inkscape:path-effect="#path-effect44"
       sodipodi:type="arc"
       sodipodi:cx="28"
       sodipodi:cy="27.5"
       sodipodi:rx="5"
       sodipodi:ry="5"
       d="m 33,27.5 c 0,2.761424 -2.238576,5 -5,5 -2.761424,0 -5,-2.238576 -5,-5 0,-2.761424 2.238576,-5 5,-5 2.761424,0 5,2.238576 5,5 z m 28.500003,0 c 0,2.761424 2.238576,5 5,5 2.761424,0 5,-2.238576 5,-5 0,-2.761424 -2.238576,-5 -5,-5 -2.761424,0 -5,2.238576 -5,5 z"
       transform="translate(2.75,-3)" />
  </g>
</svg>
