<?xml version="1.0" encoding="UTF-8" standalone="no"?>
<!-- Created with Inkscape (http://www.inkscape.org/) -->

<svg
   version="1.1"
   id="svg1"
   width="300"
   height="120"
   viewBox="0 0 299.99999 120"
   sodipodi:docname="interactmsz-logo.svg"
   inkscape:version="1.4.2 (ebf0e940d0, 2025-05-08)"
   xmlns:inkscape="http://www.inkscape.org/namespaces/inkscape"
   xmlns:sodipodi="http://sodipodi.sourceforge.net/DTD/sodipodi-0.dtd"
   xmlns="http://www.w3.org/2000/svg"
   xmlns:svg="http://www.w3.org/2000/svg">
  <defs
     id="defs1">
    <clipPath
       clipPathUnits="userSpaceOnUse"
       id="clipPath2">
      <path
         d="M 0,162 H 444.454 V 0 H 0 Z"
         transform="translate(-438.1458,-82.897491)"
         id="path2" />
    </clipPath>
    <clipPath
       clipPathUnits="userSpaceOnUse"
       id="clipPath3">
      <path
         d="M 0,0 H 188.5824 V 68.7384 H 0 Z"
         transform="matrix(1.3333333,0,0,1.3333333,314.448,119.9232)"
         id="path3" />
    </clipPath>
    <clipPath
       clipPathUnits="userSpaceOnUse"
       id="clipPath4">
      <path
         d="M 0,0 H 188.5824 V 68.7384 H 0 Z"
         transform="matrix(2.3568174,0,0,-2.3567619,-366.1117,33.31934)"
         id="path4" />
    </clipPath>
    <clipPath
       clipPathUnits="userSpaceOnUse"
       id="clipPath5">
      <path
         d="M 0,0 H 188.5824 V 68.7384 H 0 Z"
         transform="matrix(2.3568174,0,0,-2.3567619,-96.912303,96.727942)"
         id="path5" />
    </clipPath>
    <clipPath
       clipPathUnits="userSpaceOnUse"
       id="clipPath6">
      <path
         d="M 0,0 H 188.5824 V 68.7384 H 0 Z"
         transform="matrix(2.3568174,0,0,-2.3567619,-53.753096,63.61334)"
         id="path6" />
    </clipPath>
    <clipPath
       clipPathUnits="userSpaceOnUse"
       id="clipPath7">
      <path
         d="M 0,0 H 188.5824 V 68.7384 H 0 Z"
         transform="matrix(2.3568174,0,0,-2.3567619,-19.312799,49.255835)"
         id="path7" />
    </clipPath>
    <clipPath
       clipPathUnits="userSpaceOnUse"
       id="clipPath8">
      <path
         d="M 0,0 H 188.5824 V 68.7384 H 0 Z"
         transform="matrix(2.3568174,0,0,-2.3567619,-231.2875,71.43495)"
         id="path8" />
    </clipPath>
    <clipPath
       clipPathUnits="userSpaceOnUse"
       id="clipPath9">
      <path
         d="M 0,0 H 188.5824 V 68.7384 H 0 Z"
         transform="matrix(2.3568174,0,0,-2.3567619,-274.542,96.727942)"
         id="path9" />
    </clipPath>
    <clipPath
       clipPathUnits="userSpaceOnUse"
       id="clipPath10">
      <path
         d="M 0,0 H 188.5824 V 68.7384 H 0 Z"
         transform="matrix(2.3568174,0,0,-2.3567619,-191.9444,62.896236)"
         id="path10" />
    </clipPath>
    <clipPath
       clipPathUnits="userSpaceOnUse"
       id="clipPath11">
      <path
         d="M 0,0 H 188.5824 V 68.7384 H 0 Z"
         transform="matrix(2.3568174,0,0,-2.3567619,-138.5368,76.021745)"
         id="path11" />
    </clipPath>
    <clipPath
       clipPathUnits="userSpaceOnUse"
       id="clipPath12">
      <path
         d="M 0,0 H 188.5824 V 68.7384 H 0 Z"
         transform="matrix(2.3568174,0,0,-2.3567619,-167.10899,63.569646)"
         id="path12" />
    </clipPath>
    <clipPath
       clipPathUnits="userSpaceOnUse"
       id="clipPath13">
      <path
         d="M 0,0 H 188.5824 V 68.7384 H 0 Z"
         transform="matrix(1.3333333,0,0,1.3333333,314.448,119.9232)"
         id="path13" />
    </clipPath>
  </defs>
  <sodipodi:namedview
     id="namedview1"
     pagecolor="#ffffff"
     bordercolor="#000000"
     borderopacity="0.25"
     inkscape:showpageshadow="2"
     inkscape:pageopacity="0.0"
     inkscape:pagecheckerboard="0"
     inkscape:deskcolor="#d1d1d1"
     inkscape:zoom="1.0366667"
     inkscape:cx="217.0418"
     inkscape:cy="151.92926"
     inkscape:window-width="1366"
     inkscape:window-height="696"
     inkscape:window-x="0"
     inkscape:window-y="0"
     inkscape:window-maximized="1"
     inkscape:current-layer="g1">
    <inkscape:page
       x="0"
       y="0"
       inkscape:label="1"
       id="page1"
       width="300"
       height="120"
       margin="0"
       bleed="0" />
  </sodipodi:namedview>
  <g
     id="g1"
     inkscape:groupmode="layer"
     inkscape:label="1">
    <g
       id="g25"
       transform="translate(24.232457,-46.591084)">
      <path
         id="path1"
         d="m -7.3764917,150.68185 c 1.3593751,0 2.7499996,-0.15625 3.8124996,-0.51562 l -0.125,-1.82813 c -1.203124,0.48438 -2.4062496,0.65625 -3.6093745,0.65625 -4.9999994,0 -8.3124994,-3.20312 -8.3124994,-8.03125 0,-4.70312 3.25,-8.0625 7.9843744,-8.0625 1.453125,0 2.8593755,0.23438 3.8749995,0.73438 l 0.2187506,-1.78125 c -1.1406253,-0.46875 -2.5625002,-0.625 -3.9843751,-0.625 -5.9531254,0 -10.0937494,3.98437 -10.0937494,9.73437 0,5.98438 4.15625,9.71875 10.2343743,9.71875 z m 7.3984368,-0.1875 H 1.8031957 V 129.8381 H 0.0219451 Z m 11.3945319,0.29688 c 2.1875,0 3.859374,-1.09375 4.8125,-2.92188 h 0.06249 c 0,0.73438 0.04688,2.03125 0.109373,2.625 h 1.718751 c -0.109368,-1.17187 -0.140617,-2.67187 -0.140617,-4.15625 v -9.71875 h -1.765626 v 6.98438 c 0,3.89062 -1.890625,5.6875 -4.406249,5.6875 -2.6718758,0 -3.4374998,-1.6875 -3.4374998,-5.28125 v -7.39063 H 6.5571023 v 7.96875 c 0,4.1875 1.4843746,6.20313 4.8593747,6.20313 z m 17.933593,0 c 3.890625,0 6.046874,-3.17188 6.046874,-7.40625 0,-3.90625 -2.109374,-7.07813 -5.875,-7.07813 -2.109374,0 -3.9375,1.28125 -4.843749,3.0625 h -0.04688 c 0.04688,-0.70312 0.07812,-2.40625 0.07812,-3.76562 v -5.76563 h -1.781249 v 16.45313 c 0,1.46875 -0.01563,3.03125 -0.125,4.20312 h 1.656249 c 0.06249,-0.54687 0.109373,-1.78125 0.109373,-2.70312 h 0.06249 c 0.921874,1.78125 2.671874,3 4.718749,3 z m -0.1875,-1.5 c -2.671875,0 -4.5,-2.48438 -4.5,-5.76563 0,-3.39062 2.078125,-5.71875 4.5625,-5.71875 2.75,0 4.28125,2.51563 4.28125,5.6875 0,3.5 -1.65625,5.79688 -4.34375,5.79688 z m 16.695313,1.20312 h 1.843749 v -13.17187 c 0,-0.90625 0,-3.0625 -0.06249,-4.51563 h 0.06249 c 0.343751,1.1875 1.140625,3.17188 1.468751,4.03125 l 5.578123,13.65625 h 1.671876 l 5.765624,-13.96875 c 0.343751,-0.8125 1,-2.45312 1.4375,-3.71875 H 63.686 c -0.06249,1.45313 -0.06249,3.60938 -0.06249,4.51563 v 13.17187 h 1.890625 V 131.41623 H 62.451636 L 57.12351,144.5881 c -0.328124,0.84375 -1.031249,2.76563 -1.421874,3.9375 h -0.04688 c -0.359375,-1.20312 -1.015626,-3.0625 -1.375,-3.9375 l -5.26562,-13.17187 h -3.156249 z m 28.761718,-15.82812 h 1.421874 l 3.218749,-4.82813 H 77.27585 Z m -0.375,16.01562 c 2.203124,0 3.921874,-1.10937 4.671874,-2.70312 h 0.04688 c -0.03125,0.39062 -0.04688,1.01562 -0.04688,1.375 0,0.40625 0.01563,0.92187 0.04688,1.14062 h 1.640625 c -0.07813,-0.98437 -0.156256,-2.54687 -0.156256,-4.07812 0,-0.78125 0.07812,-2.89063 0.07812,-4.67188 0,-3.25 -1.421874,-5.4375 -5.109374,-5.4375 -1.453125,0 -3.140625,0.39063 -4.4375,1.15625 l 0.109373,1.65625 c 1.265626,-0.89062 2.734375,-1.32812 4.078126,-1.32812 2.671874,0 3.656249,1.6875 3.656249,4.04687 v 0.40625 c -0.546875,-0.0625 -1.3125,-0.0781 -1.906249,-0.0781 -4.75,0 -7.375,1.53125 -7.375,4.46875 0,2.46875 1.875,4.04687 4.703125,4.04687 z m 0.296874,-1.39062 c -1.859374,0 -3.125,-1.03125 -3.125,-2.65625 0,-2.20313 2.078126,-3.14063 5.796875,-3.14063 0.6875,0 1.234374,0.0312 1.640625,0.0937 0,3.98438 -1.5,5.70313 -4.3125,5.70313 z m 15.523437,1.35937 c 0.625,0 1.281249,-0.10937 1.796875,-0.29687 l -0.07812,-1.42188 c -0.5,0.21875 -0.9375,0.3125 -1.453124,0.3125 -1.6875,0 -2.375,-1.125 -2.375,-3.34375 v -7.73437 h 3.656249 v -1.46875 h -3.656249 v -3.78125 l -1.75,0.60937 v 3.17188 h -2.984376 v 1.46875 h 2.984376 v 8.03125 c 0,2.73437 0.843749,4.45312 3.859375,4.45312 z m 9.406249,-15.98437 h 1.421879 l 3.21875,-4.82813 h -2 z m 1.640629,16.125 c 1.42187,0 2.73437,-0.26563 3.90625,-0.8125 l -0.0781,-1.70313 c -1.23438,0.65625 -2.39063,0.98438 -3.78125,0.98438 -3.187503,0 -5.156253,-2.07813 -5.187503,-5.375 h 10.000003 c 0.0312,-0.29688 0.0625,-0.6875 0.0625,-0.9375 0,-4.39063 -2.10937,-6.64063 -5.57812,-6.64063 -3.750004,0 -6.312504,2.875 -6.312504,7.17188 0,4.53125 2.484375,7.3125 6.968754,7.3125 z m -5.093753,-8.35938 c 0.25,-3.03125 2,-4.70312 4.406253,-4.70312 2.375,0 3.82812,1.59375 3.82812,4.70312 z m 16.402343,8.35938 c 2.51563,0 4.78124,-1.3125 4.78124,-4.09375 0,-1.92188 -1.125,-3.0625 -3.60936,-3.98438 -2.01563,-0.76562 -2.96876,-1.375 -2.96876,-2.65625 0,-1.5 1.28126,-2.26562 2.78126,-2.26562 1.03125,0 2,0.15625 3,0.65625 l 0.17186,-1.59375 c -0.90624,-0.34375 -2.03124,-0.54688 -3.17186,-0.54688 -2.54688,0 -4.53125,1.42188 -4.53125,3.85938 0,2.04687 1.35937,2.92187 3.39062,3.76562 2.31249,0.98438 3.14063,1.53125 3.14063,2.92188 0,1.70312 -1.48438,2.4375 -3.0625,2.4375 -1.26563,0 -2.35938,-0.26563 -3.5,-0.875 l -0.1875,1.67187 c 1.20312,0.45313 2.375,0.70313 3.76562,0.70313 z m 7.04687,-0.29688 h 10.60937 v -1.46875 h -8.64061 c 0.79687,-0.875 2.98437,-3.67187 8.53124,-10.82812 v -1.57813 h -10.14063 v 1.4375 h 8.23439 c -0.60939,0.6875 -2.29688,2.79688 -8.59376,10.875 z m 17.78125,0.1875 c 2.20312,0 3.92188,-1.10937 4.67188,-2.70312 h 0.0469 c -0.0312,0.39062 -0.0469,1.01562 -0.0469,1.375 0,0.40625 0.0156,0.92187 0.0469,1.14062 h 1.64062 c -0.0781,-0.98437 -0.15625,-2.54687 -0.15625,-4.07812 0,-0.78125 0.0781,-2.89063 0.0781,-4.67188 0,-3.25 -1.42188,-5.4375 -5.10937,-5.4375 -1.45313,0 -3.14063,0.39063 -4.43751,1.15625 l 0.10934,1.65625 c 1.26562,-0.89062 2.73437,-1.32812 4.07813,-1.32812 2.67187,0 3.65624,1.6875 3.65624,4.04687 v 0.40625 c -0.54687,-0.0625 -1.31249,-0.0781 -1.90624,-0.0781 -4.75,0 -7.375,1.53125 -7.375,4.46875 0,2.46875 1.875,4.04687 4.70312,4.04687 z m 0.29688,-1.39062 c -1.85937,0 -3.125,-1.03125 -3.125,-2.65625 0,-2.20313 2.07812,-3.14063 5.79687,-3.14063 0.68751,0 1.23437,0.0312 1.64063,0.0937 0,3.98438 -1.5,5.70313 -4.3125,5.70313 z m 10.75782,1.20312 h 1.78124 V 129.8381 h -1.78124 z m 6.72656,0 h 1.78125 v -7.375 h 0.0625 c 0.54688,0.70313 1.31251,1.57813 2.07812,2.375 l 4.82814,5 h 2.45312 l -7.71875,-7.8125 7.125,-6.0625 h -2.45316 l -4.18751,3.70313 c -0.84374,0.76562 -1.64062,1.5625 -2.125,2.14062 h -0.0625 v -12.625 h -1.78125 z m 17.36718,0.1875 c 2.20312,0 3.92187,-1.10937 4.67187,-2.70312 h 0.0469 c -0.0312,0.39062 -0.0469,1.01562 -0.0469,1.375 0,0.40625 0.0156,0.92187 0.0469,1.14062 h 1.64063 c -0.0781,-0.98437 -0.15625,-2.54687 -0.15625,-4.07812 0,-0.78125 0.0781,-2.89063 0.0781,-4.67188 0,-3.25 -1.42188,-5.4375 -5.10939,-5.4375 -1.45312,0 -3.14061,0.39063 -4.43749,1.15625 l 0.10933,1.65625 c 1.26563,-0.89062 2.73438,-1.32812 4.07812,-1.32812 2.67188,0 3.65626,1.6875 3.65626,4.04687 v 0.40625 c -0.54687,-0.0625 -1.3125,-0.0781 -1.90626,-0.0781 -4.75,0 -7.375,1.53125 -7.375,4.46875 0,2.46875 1.875,4.04687 4.70314,4.04687 z m 0.29687,-1.39062 c -1.85937,0 -3.125,-1.03125 -3.125,-2.65625 0,-2.20313 2.07813,-3.14063 5.79688,-3.14063 0.68751,0 1.23437,0.0312 1.64063,0.0937 0,3.98438 -1.5,5.70313 -4.31251,5.70313 z m 0,0"
         style="fill:#0fa2e2;fill-opacity:1;fill-rule:nonzero;stroke:none;stroke-width:1.33333"
         aria-label="Club Mátészalka" />
      <g
         id="g24"
         transform="translate(-293.24759,-62.700965)">
        <g
           clip-path="url(#clipPath13)"
           id="g23">
          <g
             id="g13" />
          <g
             clip-path="url(#clipPath3)"
             id="g14">
            <path
               d="m 0,0 -0.015,0.203 -0.154,0.089 c -3.062,1.857 -7.078,2.903 -11.004,2.987 -0.078,0.521 -0.571,4.199 -0.632,4.724 3.755,1.063 7.352,3.102 9.874,5.712 l 0.131,0.122 -0.037,0.2 c -0.186,1.399 -0.719,3.349 -1.201,4.531 l -0.081,0.177 -0.189,0.048 c -3.454,0.986 -7.589,0.96 -11.387,0 -0.181,0.487 -1.585,3.877 -1.786,4.353 3.344,2.04 6.279,4.93 8.04,8.062 l 0.096,0.152 -0.07,0.195 c -0.506,1.204 -1.526,2.951 -2.338,4.055 l -0.111,0.152 h -0.207 c -3.554,0.077 -7.524,-1.012 -11.022,-2.896 -0.307,0.429 -2.585,3.394 -2.895,3.807 2.727,2.81 4.808,6.374 5.702,9.86 l 0.053,0.196 -0.134,0.148 c -0.813,1.07 -2.228,2.507 -3.291,3.345 l -0.147,0.111 -0.2,-0.03 c -3.495,-0.885 -7.04,-2.976 -9.859,-5.687 -0.432,0.33 -3.386,2.645 -3.815,2.992 1.883,3.323 2.986,7.168 2.986,10.713 0,0.099 -0.018,0.479 -0.018,0.479 l -0.15,0.115 c -1.09,0.857 -2.818,1.846 -4.073,2.356 l -0.171,0.063 -0.159,-0.085 c -3.135,-1.744 -6.01,-4.661 -8.029,-8.003 -0.505,0.196 -4.101,1.707 -4.576,1.913 0.475,1.883 0.769,3.823 0.769,5.761 0,1.95 -0.235,3.871 -0.769,5.61 l -0.044,0.18 -0.193,0.074 c -1.185,0.51 -3.085,1.031 -4.489,1.233 l -0.209,0.033 -0.125,-0.135 c -2.594,-2.515 -4.63,-6.098 -5.708,-9.857 -0.534,0.089 -4.253,0.55 -4.82,0.609 -0.049,3.896 -1.097,7.885 -2.951,10.986 l -0.092,0.177 -0.197,0.009 c -1.341,0.17 -3.373,0.17 -4.686,0 l -0.21,-0.009 -0.092,-0.177 c -1.839,-3.068 -2.877,-7.056 -2.944,-10.974 -0.541,-0.071 -4.318,-0.532 -4.865,-0.621 -1.081,3.778 -3.121,7.375 -5.704,9.878 l -0.144,0.145 -0.211,-0.031 c -1.391,-0.206 -3.315,-0.723 -4.503,-1.207 l -0.179,-0.077 -0.07,-0.181 c -0.487,-1.766 -0.749,-3.711 -0.749,-5.68 0,-1.901 0.303,-3.856 0.749,-5.72 -0.473,-0.203 -4.101,-1.765 -4.589,-1.961 -2.034,3.346 -4.915,6.281 -8.043,8.047 l -0.17,0.099 -0.197,-0.066 c -1.202,-0.528 -2.942,-1.532 -4.043,-2.359 l -0.172,-0.105 v -0.519 c 0,-3.508 1.087,-7.367 2.953,-10.713 -0.406,-0.337 -3.135,-2.471 -3.545,-2.803 -2.811,2.717 -6.367,4.808 -9.874,5.716 l -0.179,0.037 -0.135,-0.128 c -1.076,-0.806 -2.524,-2.225 -3.351,-3.299 l -0.12,-0.155 0.044,-0.188 c 0.877,-3.482 2.968,-7.046 5.68,-9.883 -0.296,-0.416 -2.674,-3.511 -3.004,-3.939 -3.401,1.902 -7.361,3.024 -10.99,2.973 l -0.182,-0.009 -0.12,-0.161 c -0.793,-1.056 -1.798,-2.763 -2.347,-4.062 l -0.079,-0.17 0.096,-0.177 c 1.739,-3.12 4.683,-6.034 8.042,-8.074 -0.183,-0.479 -1.559,-3.836 -1.771,-4.323 -3.861,0.956 -7.977,0.968 -11.412,-0.033 l -0.185,-0.049 -0.068,-0.166 c -0.507,-1.203 -1.031,-3.101 -1.231,-4.531 l -0.023,-0.196 0.137,-0.151 c 2.507,-2.577 6.107,-4.616 9.866,-5.66 -0.077,-0.533 -0.563,-4.247 -0.629,-4.757 -3.91,-0.074 -7.934,-1.107 -11.005,-2.95 l -0.169,-0.097 -0.018,-0.199 c -0.078,-0.673 -0.129,-1.51 -0.129,-2.356 0,-0.84 0.051,-1.668 0.129,-2.338 l 0.018,-0.192 0.169,-0.088 c 3.071,-1.839 7.061,-2.891 10.994,-2.949 0.077,-0.538 0.601,-4.353 0.668,-4.877 -3.771,-1.106 -7.342,-3.169 -9.849,-5.745 l -0.135,-0.16 0.018,-0.173 c 0.218,-1.41 0.734,-3.353 1.222,-4.523 l 0.075,-0.174 0.179,-0.059 c 3.481,-0.994 7.596,-0.951 11.418,0 0.194,-0.484 1.673,-3.862 1.876,-4.349 -3.344,-2.003 -6.274,-4.9 -8.044,-8.033 l -0.083,-0.175 0.064,-0.179 c 0.514,-1.229 1.538,-2.97 2.354,-4.055 l 0.123,-0.155 0.176,-0.007 c 3.592,-0.051 7.56,1.013 11.005,2.913 0.322,-0.403 2.651,-3.435 2.956,-3.849 -2.705,-2.768 -4.805,-6.316 -5.7,-9.851 l -0.048,-0.18 0.116,-0.156 c 0.827,-1.058 2.254,-2.474 3.307,-3.331 l 0.155,-0.132 0.185,0.062 c 3.487,0.867 7.026,2.943 9.875,5.669 0.431,-0.333 3.445,-2.652 3.888,-2.981 -1.854,-3.404 -2.936,-7.285 -2.936,-10.818 v -0.397 l 0.178,-0.133 c 1.047,-0.798 2.758,-1.772 4.036,-2.347 l 0.177,-0.064 0.184,0.09 c 3.141,1.752 6.043,4.693 8.077,8.08 0.47,-0.193 3.78,-1.535 4.265,-1.729 -0.473,-1.865 -0.746,-3.789 -0.746,-5.684 0,-1.988 0.261,-3.932 0.765,-5.678 l 0.046,-0.186 0.193,-0.07 c 1.19,-0.509 3.105,-1.03 4.509,-1.257 l 0.21,-0.028 0.136,0.156 c 2.601,2.528 4.631,6.125 5.647,9.848 0.548,-0.089 4.353,-0.627 4.885,-0.684 0.077,-3.93 1.132,-7.928 2.974,-10.976 l 0.081,-0.167 0.211,-0.025 c 1.352,-0.172 3.361,-0.172 4.685,0 l 0.193,0.025 0.095,0.167 c 1.829,3.048 2.878,7.052 2.977,10.998 0.531,0.074 4.095,0.573 4.629,0.662 1.05,-3.787 3.095,-7.352 5.696,-9.877 l 0.143,-0.127 0.174,0.015 c 1.42,0.223 3.346,0.722 4.543,1.21 l 0.17,0.085 0.059,0.176 c 0.506,1.76 0.735,3.691 0.735,5.675 0,1.919 -0.271,3.877 -0.735,5.76 0.489,0.184 3.946,1.681 4.43,1.897 2.036,-3.356 4.93,-6.296 8.051,-8.059 l 0.155,-0.078 0.185,0.068 c 1.242,0.512 2.996,1.523 4.074,2.365 l 0.155,0.091 c 0,0 0.012,0.415 0.012,0.53 0,3.459 -1.095,7.321 -2.915,10.706 0.408,0.323 3.264,2.543 3.67,2.871 2.852,-2.71 6.407,-4.793 9.893,-5.695 l 0.185,-0.051 0.143,0.133 c 1.063,0.835 2.51,2.265 3.339,3.301 l 0.129,0.17 -0.065,0.17 c -0.867,3.478 -2.941,7.038 -5.659,9.881 0.315,0.418 2.619,3.445 2.929,3.874 3.451,-1.901 7.419,-2.989 10.991,-2.912 h 0.196 l 0.117,0.143 c 0.852,1.09 1.838,2.795 2.351,4.084 l 0.079,0.162 -0.094,0.173 c -1.704,3.067 -4.623,5.986 -7.966,8.09 0.193,0.48 1.56,3.814 1.762,4.294 3.791,-0.976 7.906,-1.008 11.368,0 l 0.169,0.057 0.077,0.172 c 0.508,1.221 1.024,3.112 1.24,4.516 l 0.022,0.196 -0.146,0.148 c -2.509,2.602 -6.086,4.618 -9.817,5.686 0.082,0.52 0.589,4.098 0.642,4.625 3.951,0.069 7.967,1.121 11.029,2.968 L -0.015,-4.875 0,-4.668 c 0.093,0.651 0.126,1.504 0.126,2.341 C 0.126,-1.484 0.093,-0.657 0,0 m -72.034,-55.922 c -29.82,0 -54.094,24.273 -54.094,54.11 0,29.833 24.274,54.102 54.094,54.102 29.835,0 54.098,-24.269 54.098,-54.102 0,-29.837 -24.263,-54.11 -54.098,-54.11"
               style="fill:#0fa2e2;fill-opacity:1;fill-rule:nonzero;stroke:none"
               transform="matrix(0.56573467,0,0,-0.565748,562.32227,164.67531)"
               clip-path="url(#clipPath2)"
               id="path14" />
          </g>
          <path
             d="m 0,0 c -26.233,0 -47.585,-21.355 -47.585,-47.595 0,-26.253 21.352,-47.603 47.585,-47.603 26.241,0 47.6,21.35 47.6,47.603 C 47.6,-21.355 26.241,0 0,0 m 5.989,-7.652 c 0.458,0.373 1.065,0.255 1.667,0.13 9.561,-2.315 16.583,-6.355 23.437,-13.556 0.486,-0.513 0.747,-0.994 0.747,-1.419 0,-0.04 -0.012,-0.106 -0.012,-0.168 -0.146,-0.658 -0.879,-1.005 -1.534,-1.319 l -20.023,-9.697 c -0.79,-0.374 -1.527,-0.411 -2.105,-0.052 -0.591,0.339 -0.958,0.997 -1.024,1.858 L 5.528,-9.693 c -0.066,1.059 0.079,1.713 0.461,2.041 m -37.173,-13.596 h 0.012 c 6.849,7.194 13.86,11.252 23.425,13.546 0.591,0.133 1.222,0.247 1.644,-0.13 0.406,-0.318 0.547,-0.968 0.472,-2.034 l -1.619,-22.18 c -0.051,-0.853 -0.405,-1.525 -1.003,-1.853 -0.584,-0.351 -1.346,-0.333 -2.106,0.043 l -20.012,9.691 c -0.655,0.325 -1.417,0.668 -1.549,1.329 -0.064,0.454 0.158,0.986 0.736,1.588 m -4.753,-41.113 c -0.868,-0.594 -1.512,-0.807 -2.002,-0.631 -0.546,0.189 -0.728,0.788 -0.899,1.378 -2.832,9.446 -2.832,17.548 -0.035,27.075 0.242,0.817 0.585,1.267 1.02,1.426 0.641,0.229 1.312,-0.24 1.916,-0.653 l 18.396,-12.516 c 0.695,-0.46 1.099,-1.103 1.099,-1.798 0,-0.668 -0.404,-1.312 -1.072,-1.798 z m 30.194,-26.044 c -0.442,-0.358 -1.054,-0.251 -1.66,-0.095 -9.562,2.281 -16.592,6.328 -23.427,13.54 -0.499,0.516 -0.736,0.971 -0.736,1.379 0,0.074 0,0.118 0.013,0.199 0.094,0.631 0.866,1.001 1.511,1.313 l 20.025,9.717 c 0.781,0.365 1.536,0.384 2.126,0.036 0.578,-0.342 0.939,-0.993 1.005,-1.838 l 1.622,-22.228 c 0.063,-1.055 -0.092,-1.701 -0.479,-2.023 m 5.708,27.708 c -7.174,0 -13.004,5.83 -13.004,12.998 0,4.376 2.183,8.438 5.848,10.857 1.207,0.808 2.836,0.461 3.634,-0.739 0.797,-1.211 0.473,-2.844 -0.739,-3.641 -2.19,-1.441 -3.489,-3.859 -3.489,-6.477 0,-4.268 3.481,-7.751 7.75,-7.751 4.279,0 7.755,3.483 7.755,7.751 0,2.618 -1.297,5.048 -3.493,6.484 -1.207,0.802 -1.536,2.43 -0.733,3.638 0.793,1.2 2.428,1.543 3.63,0.746 3.656,-2.423 5.849,-6.481 5.849,-10.868 0,-7.168 -5.836,-12.998 -13.008,-12.998 M 31.119,-74.7 c -6.822,-7.183 -13.808,-11.227 -23.424,-13.531 -0.816,-0.205 -1.38,-0.141 -1.729,0.148 -0.504,0.424 -0.438,1.266 -0.389,1.995 l 1.596,22.195 c 0.101,0.862 0.442,1.515 1.048,1.877 0.591,0.318 1.348,0.292 2.093,-0.066 l 20.029,-9.697 c 0.934,-0.462 1.435,-0.918 1.532,-1.415 0.097,-0.558 -0.31,-1.048 -0.756,-1.506 m 6.749,41.691 c 0.54,-0.182 0.753,-0.779 0.919,-1.367 2.813,-9.457 2.813,-17.547 0,-27.079 -0.227,-0.819 -0.558,-1.27 -0.993,-1.447 -0.626,-0.193 -1.316,0.257 -1.891,0.684 L 17.487,-49.72 c -0.708,0.472 -1.125,1.116 -1.125,1.804 0,0.677 0.406,1.32 1.125,1.812 l 18.416,12.482 c 0.83,0.598 1.479,0.786 1.965,0.613"
             style="fill:#0fa2e2;fill-opacity:1;fill-rule:nonzero;stroke:none"
             transform="matrix(0.56573467,0,0,-0.565748,521.57008,138.77355)"
             clip-path="url(#clipPath4)"
             id="path15" />
          <path
             d="m 0,0 c -1.26,-0.054 -3.604,-0.162 -5.099,-0.162 -4.066,0 -4.27,2.004 -4.27,7.802 v 16.752 h 9.526 c 0.863,0 1.552,0.697 1.552,1.558 v 5.344 c 0,0.862 -0.689,1.551 -1.552,1.551 h -9.526 v 7.881 c 0,0.482 -0.228,0.925 -0.604,1.227 -0.376,0.293 -0.861,0.395 -1.324,0.285 l -6.251,-1.523 c -0.698,-0.169 -1.184,-0.796 -1.184,-1.516 v -6.354 h -3.619 c -0.862,0 -1.559,-0.689 -1.559,-1.551 V 25.95 c 0,-0.861 0.697,-1.558 1.559,-1.558 h 3.619 V 6.323 c 0,-11.821 2.876,-15.442 12.316,-15.442 1.872,0 4.866,0.495 7.044,0.895 0.759,0.148 1.3,0.838 1.26,1.606 L 1.622,-1.471 C 1.584,-0.61 0.839,0.025 0,0"
             style="fill:#0fa2e2;fill-opacity:1;fill-rule:nonzero;stroke:none"
             transform="matrix(0.56573467,0,0,-0.565748,369.27465,174.64684)"
             clip-path="url(#clipPath5)"
             id="path16" />
          <path
             d="m 0,0 c -0.117,0.02 -0.478,0.032 -1.206,0.04 -0.11,0 -0.212,0.008 -0.321,0.008 V 0.04 c -0.235,0.004 -0.494,0.004 -0.784,0.004 -4.145,0 -8.202,-2.608 -10.741,-4.411 v 2.546 c 0,0.862 -0.697,1.551 -1.559,1.551 h -6.251 c -0.862,0 -1.561,-0.689 -1.561,-1.551 v -37.865 c 0,-0.863 0.699,-1.551 1.561,-1.551 h 6.251 c 0.862,0 1.559,0.688 1.559,1.551 v 26.172 c 1.41,1.175 5.774,4.45 10.976,4.909 0.024,0.003 0.039,0.007 0.055,0.011 v -0.011 c 3.204,0 5.054,-1.486 5.084,-4.556 v -0.353 -26.172 c 0,-0.863 0.698,-1.551 1.56,-1.551 h 6.251 c 0.862,0 1.56,0.688 1.56,1.551 v 6.62 14.099 5.144 C 12.434,-4.888 8.468,-0.461 0,0"
             style="fill:#0fa2e2;fill-opacity:1;fill-rule:nonzero;stroke:none"
             transform="matrix(0.56573467,0,0,-0.565748,344.85799,155.91232)"
             clip-path="url(#clipPath6)"
             id="path17" />
          <path
             d="M 0,0 H -6.494 C -6.549,0 -6.596,-0.012 -6.651,-0.015 L -6.659,0 C -6.683,-0.005 -6.706,-0.02 -6.738,-0.024 -6.878,-0.048 -7.02,-0.09 -7.145,-0.149 -7.192,-0.168 -7.231,-0.192 -7.27,-0.216 -7.395,-0.29 -7.513,-0.377 -7.614,-0.483 -7.638,-0.51 -7.661,-0.537 -7.685,-0.568 c -0.094,-0.118 -0.181,-0.247 -0.243,-0.395 -0.008,-0.02 -0.008,-0.044 -0.015,-0.068 -0.064,-0.156 -0.095,-0.324 -0.095,-0.501 0,-0.008 -0.007,-0.008 -0.007,-0.012 v -0.011 -52.488 c 0,-0.864 0.696,-1.552 1.566,-1.552 h 6.496 c 0.055,0 0.101,0.008 0.156,0.016 l 0.008,-0.016 c 0.023,0 0.047,0.016 0.078,0.023 0.141,0.024 0.282,0.064 0.408,0.126 0.046,0.016 0.086,0.04 0.125,0.062 0.126,0.079 0.242,0.165 0.344,0.267 0.024,0.032 0.048,0.062 0.071,0.086 0.094,0.117 0.18,0.251 0.243,0.399 0.008,0.017 0.008,0.039 0.015,0.064 0.063,0.156 0.094,0.328 0.094,0.509 l 0.008,0.007 v 0.009 52.488 C 1.567,-0.694 0.871,0 0,0"
             style="fill:#0fa2e2;fill-opacity:1;fill-rule:nonzero;stroke:none"
             transform="matrix(0.56573467,0,0,-0.565748,325.37392,147.78959)"
             clip-path="url(#clipPath7)"
             id="path18" />
          <path
             d="m 0,0 c 4.458,0 8.594,-1.011 11.987,-1.317 0.423,-0.043 0.854,0.094 1.175,0.377 0.314,0.273 0.509,0.681 0.527,1.104 l 0.203,5.194 C 13.923,6.15 13.358,6.835 12.582,6.953 9.551,7.439 4.718,8.539 0,8.539 c -12.777,0 -18.474,-6.561 -18.474,-21.266 0,-0.11 0,-0.212 0.008,-0.317 h -0.008 c 0,-14.708 5.697,-21.265 18.474,-21.265 4.718,0 9.551,1.097 12.582,1.581 0.776,0.118 1.341,0.808 1.31,1.599 l -0.203,5.195 c -0.018,0.415 -0.213,0.83 -0.527,1.104 -0.321,0.283 -0.752,0.416 -1.175,0.368 C 8.594,-24.759 4.458,-25.769 0,-25.769 c -5.726,0 -8.25,2.506 -8.821,9.292 -0.008,0.133 -0.024,0.265 -0.031,0.406 -0.015,0.259 -0.032,0.533 -0.046,0.807 -0.009,0.282 -0.025,0.571 -0.032,0.877 -0.009,0.197 -0.009,0.406 -0.009,0.613 -0.008,0.345 -0.015,0.686 -0.015,1.047 C -8.954,-3.33 -6.611,0 0,0"
             style="fill:#0fa2e2;fill-opacity:1;fill-rule:nonzero;stroke:none"
             transform="matrix(0.56573467,0,0,-0.565748,445.29536,160.33738)"
             clip-path="url(#clipPath8)"
             id="path19" />
          <path
             d="m 0,0 c -1.263,-0.054 -3.604,-0.162 -5.1,-0.162 -4.066,0 -4.27,2.004 -4.27,7.802 v 16.752 h 9.526 c 0.862,0 1.551,0.697 1.551,1.558 v 5.344 c 0,0.862 -0.689,1.551 -1.551,1.551 H -9.37 v 7.881 c 0,0.482 -0.227,0.925 -0.604,1.227 -0.376,0.293 -0.861,0.395 -1.324,0.285 l -6.252,-1.523 c -0.696,-0.169 -1.182,-0.796 -1.182,-1.516 v -6.354 h -3.62 c -0.861,0 -1.558,-0.689 -1.558,-1.551 V 25.95 c 0,-0.861 0.697,-1.558 1.558,-1.558 h 3.62 V 6.323 c 0,-11.821 2.875,-15.442 12.315,-15.442 1.872,0 4.874,0.495 7.043,0.895 0.762,0.148 1.3,0.838 1.262,1.606 L 1.622,-1.471 C 1.59,-0.61 0.838,0.025 0,0"
             style="fill:#0fa2e2;fill-opacity:1;fill-rule:nonzero;stroke:none"
             transform="matrix(0.56573467,0,0,-0.565748,469.76593,174.64684)"
             clip-path="url(#clipPath9)"
             id="path20" />
          <path
             d="m 0,0 c -4.717,0 -12.269,-1.1 -15.301,-1.586 -0.776,-0.117 -1.34,-0.803 -1.308,-1.594 l 0.203,-5.195 c 0.016,-0.423 0.212,-0.831 0.525,-1.104 0.322,-0.283 0.752,-0.42 1.176,-0.376 3.392,0.305 9.753,0.826 14.21,0.826 3.236,0 5.093,-1.798 5.093,-4.924 v -2.468 l -10.176,-0.817 c -9.747,-0.73 -13.718,-4.338 -13.718,-12.487 0,-8.352 4.34,-13.123 11.907,-13.123 6.284,0 13.319,2.836 13.382,2.86 1.504,-1.152 3.016,-2.147 6.196,-2.594 0.441,-0.063 0.894,0.072 1.239,0.368 0.336,0.29 0.533,0.722 0.533,1.176 v 27.167 C 13.961,-4.41 9.527,0 0,0 m 4.598,-33.165 c -0.062,-0.024 -5.938,-1.652 -10.263,-1.652 -3.643,0 -4.191,3.361 -4.191,5.342 0,3.237 1.748,4.92 5.421,5.265 l 9.033,0.478 z"
             style="fill:#0fa2e2;fill-opacity:1;fill-rule:nonzero;stroke:none"
             transform="matrix(0.56573467,0,0,-0.565748,423.0376,155.50662)"
             clip-path="url(#clipPath10)"
             id="path21" />
          <path
             d="m 0,0 c 0,8.347 -3.893,13.125 -15.692,13.125 -0.533,0 -1.026,-0.022 -1.512,-0.05 -11.697,-0.517 -16.961,-7.11 -16.961,-21.215 0,-0.11 0.007,-0.212 0.007,-0.318 h -0.007 c 0,-4.836 0.43,-8.894 1.527,-12.121 1.77,-6.214 7.137,-9.143 13.343,-9.143 0.626,0 1.315,0.016 2.028,0.053 0.517,0.017 1.034,0.04 1.575,0.08 v 0.016 c 4.34,0.32 9.362,1.057 11.697,1.432 0.775,0.117 1.339,0.808 1.307,1.599 l -0.203,5.195 c -0.015,0.415 -0.212,0.83 -0.525,1.104 -0.321,0.282 -0.752,0.416 -1.174,0.368 -2.924,-0.259 -8.031,-0.682 -12.239,-0.79 -4.002,0 -6.211,1.612 -7.183,5.594 l -0.306,1.77 10.6,0.814 C -3.972,-11.758 0,-8.153 0,0 m -24.592,-5.993 c 0.016,0.304 0.031,0.611 0.047,0.9 l 0.031,0.384 c 0.423,5.077 1.911,7.932 4.959,9.084 1.16,0.341 2.476,0.615 3.863,0.615 6.127,0 6.252,-3.255 6.252,-5.245 0,-3.236 -1.748,-4.912 -5.422,-5.261 z"
             style="fill:#0fa2e2;fill-opacity:1;fill-rule:nonzero;stroke:none"
             transform="matrix(0.56573467,0,0,-0.565748,392.82307,162.93235)"
             clip-path="url(#clipPath11)"
             id="path22" />
          <path
             d="m 0,0 c -4.137,-0.247 -8.203,-2.608 -10.741,-4.411 v 2.547 c 0,0.861 -0.698,1.55 -1.558,1.55 h -6.253 c -0.862,0 -1.559,-0.689 -1.559,-1.55 V -39.73 c 0,-0.863 0.697,-1.551 1.559,-1.551 h 6.253 c 0.86,0 1.558,0.688 1.558,1.551 v 26.173 c 1.41,1.174 5.774,4.45 10.976,4.908 0.8,0.07 1.418,0.744 1.418,1.551 v 5.547 C 1.653,-1.12 1.48,-0.713 1.16,-0.423 0.853,-0.121 0.423,0.039 0,0"
             style="fill:#0fa2e2;fill-opacity:1;fill-rule:nonzero;stroke:none"
             transform="matrix(0.56573467,0,0,-0.565748,408.98735,155.8876)"
             clip-path="url(#clipPath12)"
             id="path23" />
        </g>
      </g>
    </g>
  </g>
</svg>
