<svg xmlns="http://www.w3.org/2000/svg" version="1.1" xmlns:xlink="http://www.w3.org/1999/xlink" width="100" height="100"><svg version="1.1" id="SvgjsSvg1323" width="100" height="100" viewBox="0 0 100 100" sodipodi:docname="interactmsz-favicon.svg" inkscape:version="1.4.2 (ebf0e940d0, 2025-05-08)" xmlns:inkscape="http://www.inkscape.org/namespaces/inkscape" xmlns:sodipodi="http://sodipodi.sourceforge.net/DTD/sodipodi-0.dtd" xmlns="http://www.w3.org/2000/svg" xmlns:svg="http://www.w3.org/2000/svg">
  <defs id="SvgjsDefs1322">
    <clipPath clipPathUnits="userSpaceOnUse" id="SvgjsClipPath1321">
      <path d="M 0,162 H 444.454 V 0 H 0 Z" transform="translate(-348.2327,-130.31661)" id="SvgjsPath1320"></path>
    </clipPath>
    <clipPath clipPathUnits="userSpaceOnUse" id="SvgjsClipPath1319">
      <path d="M 0,0 H 188.5824 V 68.7384 H 0 Z" transform="matrix(1.3333333,0,0,1.3333333,314.448,119.9232)" id="SvgjsPath1318"></path>
    </clipPath>
    <clipPath clipPathUnits="userSpaceOnUse" id="SvgjsClipPath1317">
      <path d="M 0,0 H 188.5824 V 68.7384 H 0 Z" transform="matrix(2.3568174,0,0,-2.3567619,-339.96949,121.91105)" id="SvgjsPath1316"></path>
    </clipPath>
    <clipPath clipPathUnits="userSpaceOnUse" id="SvgjsClipPath1315">
      <path d="M 0,0 H 188.5824 V 68.7384 H 0 Z" transform="matrix(2.3568174,0,0,-2.3567619,-340.42299,33.061734)" id="SvgjsPath1314"></path>
    </clipPath>
    <clipPath clipPathUnits="userSpaceOnUse" id="SvgjsClipPath1313">
      <path d="M 0,0 H 188.5824 V 68.7384 H 0 Z" transform="matrix(2.3568174,0,0,-2.3567619,-359.5384,27.076649)" id="SvgjsPath1312"></path>
    </clipPath>
    <clipPath clipPathUnits="userSpaceOnUse" id="SvgjsClipPath1311">
      <path d="M 0,0 H 188.5824 V 68.7384 H 0 Z" transform="matrix(2.3568174,0,0,-2.3567619,-336.6339,119.41034)" id="SvgjsPath1310"></path>
    </clipPath>
    <clipPath clipPathUnits="userSpaceOnUse" id="SvgjsClipPath1309">
      <path d="M 0,0 H 188.5824 V 68.7384 H 0 Z" transform="matrix(2.3568174,0,0,-2.3567619,-350.2663,127.60324)" id="SvgjsPath1308"></path>
    </clipPath>
    <clipPath clipPathUnits="userSpaceOnUse" id="SvgjsClipPath1307">
      <path d="M 0,0 H 188.5824 V 68.7384 H 0 Z" transform="matrix(2.3568174,0,0,-2.3567619,-324.6888,103.45104)" id="SvgjsPath1306"></path>
    </clipPath>
    <clipPath clipPathUnits="userSpaceOnUse" id="SvgjsClipPath1305">
      <path d="M 0,0 H 188.5824 V 68.7384 H 0 Z" transform="matrix(2.3568174,0,0,-2.3567619,-359.8453,127.16704)" id="SvgjsPath1304"></path>
    </clipPath>
    <clipPath clipPathUnits="userSpaceOnUse" id="SvgjsClipPath1303">
      <path d="M 0,0 H 188.5824 V 68.7384 H 0 Z" transform="matrix(2.3568174,0,0,-2.3567619,-329.69259,110.72294)" id="SvgjsPath1302"></path>
    </clipPath>
    <clipPath clipPathUnits="userSpaceOnUse" id="SvgjsClipPath1301">
      <path d="M 0,0 H 188.5824 V 68.7384 H 0 Z" transform="matrix(2.3568174,0,0,-2.3567619,-96.762092,96.197936)" id="SvgjsPath1300"></path>
    </clipPath>
    <clipPath clipPathUnits="userSpaceOnUse" id="SvgjsClipPath1299">
      <path d="M 0,0 H 188.5824 V 68.7384 H 0 Z" transform="matrix(2.3568174,0,0,-2.3567619,-53.678503,63.141434)" id="SvgjsPath1298"></path>
    </clipPath>
    <clipPath clipPathUnits="userSpaceOnUse" id="SvgjsClipPath1297">
      <path d="M 0,0 H 188.5824 V 68.7384 H 0 Z" transform="matrix(2.3568174,0,0,-2.3567619,-19.298694,48.809134)" id="SvgjsPath1296"></path>
    </clipPath>
    <clipPath clipPathUnits="userSpaceOnUse" id="SvgjsClipPath1295">
      <path d="M 0,0 H 188.5824 V 68.7384 H 0 Z" transform="matrix(2.3568174,0,0,-2.3567619,-230.9022,70.949539)" id="SvgjsPath1294"></path>
    </clipPath>
    <clipPath clipPathUnits="userSpaceOnUse" id="SvgjsClipPath1293">
      <path d="M 0,0 H 188.5824 V 68.7384 H 0 Z" transform="matrix(2.3568174,0,0,-2.3567619,-274.0803,96.197936)" id="SvgjsPath1292"></path>
    </clipPath>
    <clipPath clipPathUnits="userSpaceOnUse" id="SvgjsClipPath1291">
      <path d="M 0,0 H 188.5824 V 68.7384 H 0 Z" transform="matrix(2.3568174,0,0,-2.3567619,-196.21799,95.532145)" id="SvgjsPath1290"></path>
    </clipPath>
    <clipPath clipPathUnits="userSpaceOnUse" id="SvgjsClipPath1289">
      <path d="M 0,0 H 188.5824 V 68.7384 H 0 Z" transform="matrix(2.3568174,0,0,-2.3567619,-113.7643,81.510938)" id="SvgjsPath1288"></path>
    </clipPath>
    <clipPath clipPathUnits="userSpaceOnUse" id="SvgjsClipPath1287">
      <path d="M 0,0 H 188.5824 V 68.7384 H 0 Z" transform="matrix(2.3568174,0,0,-2.3567619,-166.83581,63.097934)" id="SvgjsPath1286"></path>
    </clipPath>
    <clipPath clipPathUnits="userSpaceOnUse" id="SvgjsClipPath1285">
      <path d="M 0,0 H 188.5824 V 68.7384 H 0 Z" transform="matrix(2.3568174,0,0,-2.3567619,-412.26119,108.00514)" id="SvgjsPath1284"></path>
    </clipPath>
    <clipPath clipPathUnits="userSpaceOnUse" id="SvgjsClipPath1283">
      <path d="M 0,0 H 188.5824 V 68.7384 H 0 Z" transform="matrix(2.3568174,0,0,-2.3567619,-407.00539,112.67434)" id="SvgjsPath1282"></path>
    </clipPath>
    <clipPath clipPathUnits="userSpaceOnUse" id="SvgjsClipPath1281">
      <path d="M 0,0 H 188.5824 V 68.7384 H 0 Z" transform="matrix(2.3568174,0,0,-2.3567619,-379.39641,30.292144)" id="SvgjsPath1280"></path>
    </clipPath>
    <clipPath clipPathUnits="userSpaceOnUse" id="SvgjsClipPath1279">
      <path d="M 0,0 H 188.5824 V 68.7384 H 0 Z" transform="matrix(2.3568174,0,0,-2.3567619,-387.9216,40.040336)" id="SvgjsPath1278"></path>
    </clipPath>
    <clipPath clipPathUnits="userSpaceOnUse" id="SvgjsClipPath1277">
      <path d="M 0,0 H 188.5824 V 68.7384 H 0 Z" transform="matrix(2.3568174,0,0,-2.3567619,-369.3462,29.503949)" id="SvgjsPath1276"></path>
    </clipPath>
    <clipPath clipPathUnits="userSpaceOnUse" id="SvgjsClipPath1275">
      <path d="M 0,0 H 188.5824 V 68.7384 H 0 Z" transform="matrix(2.3568174,0,0,-2.3567619,-421.2949,93.62764)" id="SvgjsPath1274"></path>
    </clipPath>
    <clipPath clipPathUnits="userSpaceOnUse" id="SvgjsClipPath1273">
      <path d="M 0,0 H 188.5824 V 68.7384 H 0 Z" transform="matrix(2.3568174,0,0,-2.3567619,-380.1473,125.02803)" id="SvgjsPath1272"></path>
    </clipPath>
    <clipPath clipPathUnits="userSpaceOnUse" id="SvgjsClipPath1271">
      <path d="M 0,0 H 188.5824 V 68.7384 H 0 Z" transform="matrix(2.3568174,0,0,-2.3567619,-397.14269,114.94453)" id="SvgjsPath1270"></path>
    </clipPath>
    <clipPath clipPathUnits="userSpaceOnUse" id="SvgjsClipPath1269">
      <path d="M 0,0 H 188.5824 V 68.7384 H 0 Z" transform="matrix(2.3568174,0,0,-2.3567619,-392.106,127.60324)" id="SvgjsPath1268"></path>
    </clipPath>
    <clipPath clipPathUnits="userSpaceOnUse" id="SvgjsClipPath1267">
      <path d="M 0,0 H 188.5824 V 68.7384 H 0 Z" transform="matrix(2.3568174,0,0,-2.3567619,-365.49229,133.24024)" id="SvgjsPath1266"></path>
    </clipPath>
    <clipPath clipPathUnits="userSpaceOnUse" id="SvgjsClipPath1265">
      <path d="M 0,0 H 188.5824 V 68.7384 H 0 Z" transform="matrix(2.3568174,0,0,-2.3567619,-377.9963,125.79435)" id="SvgjsPath1264"></path>
    </clipPath>
    <clipPath clipPathUnits="userSpaceOnUse" id="SvgjsClipPath1263">
      <path d="M 0,0 H 188.5824 V 68.7384 H 0 Z" transform="matrix(2.3568174,0,0,-2.3567619,-357.0218,80.932747)" id="SvgjsPath1262"></path>
    </clipPath>
    <clipPath clipPathUnits="userSpaceOnUse" id="SvgjsClipPath1261">
      <path d="M 0,0 H 188.5824 V 68.7384 H 0 Z" transform="matrix(2.3568174,0,0,-2.3567619,-423.92079,132.80625)" id="SvgjsPath1260"></path>
    </clipPath>
    <clipPath clipPathUnits="userSpaceOnUse" id="SvgjsClipPath1259">
      <path d="M -423.92079,132.80625 H 20.533477 V -29.193793 H -423.92079 Z" id="SvgjsPath1258" style="stroke-width:2.35678"></path>
    </clipPath>
    <clipPath clipPathUnits="userSpaceOnUse" id="SvgjsClipPath1257">
      <path d="M -357.0218,80.932747 H 87.432471 V -81.067295 H -357.0218 Z" id="SvgjsPath1256" style="stroke-width:2.35678"></path>
    </clipPath>
    <clipPath clipPathUnits="userSpaceOnUse" id="SvgjsClipPath1255">
      <path d="M -377.9963,125.79435 H 66.457974 V -36.205696 H -377.9963 Z" id="SvgjsPath1254" style="stroke-width:2.35678"></path>
    </clipPath>
    <clipPath clipPathUnits="userSpaceOnUse" id="SvgjsClipPath1253">
      <path d="M -365.49229,133.24024 H 78.961981 V -28.759801 H -365.49229 Z" id="SvgjsPath1252" style="stroke-width:2.35678"></path>
    </clipPath>
    <clipPath clipPathUnits="userSpaceOnUse" id="SvgjsClipPath1251">
      <path d="M -392.106,127.60324 H 52.348268 V -34.396799 H -392.106 Z" id="SvgjsPath1250" style="stroke-width:2.35678"></path>
    </clipPath>
    <clipPath clipPathUnits="userSpaceOnUse" id="SvgjsClipPath1249">
      <path d="M -397.14269,114.94453 H 47.311578 V -47.055509 H -397.14269 Z" id="SvgjsPath1248" style="stroke-width:2.35678"></path>
    </clipPath>
    <clipPath clipPathUnits="userSpaceOnUse" id="SvgjsClipPath1247">
      <path d="M -380.1473,125.02803 H 64.306966 V -36.972009 H -380.1473 Z" id="SvgjsPath1246" style="stroke-width:2.35678"></path>
    </clipPath>
    <clipPath clipPathUnits="userSpaceOnUse" id="SvgjsClipPath1245">
      <path d="M -421.2949,93.62764 H 23.159373 V -68.372403 H -421.2949 Z" id="SvgjsPath1244" style="stroke-width:2.35678"></path>
    </clipPath>
    <clipPath clipPathUnits="userSpaceOnUse" id="SvgjsClipPath1243">
      <path d="M -369.3462,29.503949 H 75.108071 V -132.49609 H -369.3462 Z" id="SvgjsPath1242" style="stroke-width:2.35678"></path>
    </clipPath>
    <clipPath clipPathUnits="userSpaceOnUse" id="SvgjsClipPath1241">
      <path d="M -387.9216,40.040336 H 56.532668 V -121.95971 H -387.9216 Z" id="SvgjsPath1240" style="stroke-width:2.35678"></path>
    </clipPath>
    <clipPath clipPathUnits="userSpaceOnUse" id="SvgjsClipPath1239">
      <path d="M -379.39641,30.292144 H 65.057865 V -131.7079 H -379.39641 Z" id="SvgjsPath1238" style="stroke-width:2.35678"></path>
    </clipPath>
    <clipPath clipPathUnits="userSpaceOnUse" id="SvgjsClipPath1237">
      <path d="M -407.00539,112.67434 H 37.44888 V -49.325707 h -444.45427 z" id="SvgjsPath1236" style="stroke-width:2.35678"></path>
    </clipPath>
    <clipPath clipPathUnits="userSpaceOnUse" id="SvgjsClipPath1235">
      <path d="M -412.26119,108.00514 H 32.193077 V -53.994906 H -412.26119 Z" id="SvgjsPath1234" style="stroke-width:2.35678"></path>
    </clipPath>
    <clipPath clipPathUnits="userSpaceOnUse" id="SvgjsClipPath1233">
      <path d="M -166.83581,63.097934 H 277.61846 V -98.902108 h -444.45427 z" id="SvgjsPath1232" style="stroke-width:2.35678"></path>
    </clipPath>
    <clipPath clipPathUnits="userSpaceOnUse" id="SvgjsClipPath1231">
      <path d="M -113.7643,81.510938 H 330.68997 V -80.489105 H -113.7643 Z" id="SvgjsPath1230" style="stroke-width:2.35678"></path>
    </clipPath>
    <clipPath clipPathUnits="userSpaceOnUse" id="SvgjsClipPath1229">
      <path d="M -196.21799,95.532145 H 248.23628 V -66.467897 h -444.45427 z" id="SvgjsPath1228" style="stroke-width:2.35678"></path>
    </clipPath>
    <clipPath clipPathUnits="userSpaceOnUse" id="SvgjsClipPath1227">
      <path d="M -274.0803,96.197936 H 170.37397 V -65.802106 H -274.0803 Z" id="SvgjsPath1226" style="stroke-width:2.35678"></path>
    </clipPath>
    <clipPath clipPathUnits="userSpaceOnUse" id="SvgjsClipPath1225">
      <path d="M -230.9022,70.949539 H 213.55207 V -91.050503 H -230.9022 Z" id="SvgjsPath1224" style="stroke-width:2.35678"></path>
    </clipPath>
    <clipPath clipPathUnits="userSpaceOnUse" id="SvgjsClipPath1223">
      <path d="M -19.298694,48.809134 H 425.15558 V -113.19091 H -19.298694 Z" id="SvgjsPath1222" style="stroke-width:2.35678"></path>
    </clipPath>
    <clipPath clipPathUnits="userSpaceOnUse" id="SvgjsClipPath1221">
      <path d="M -53.678503,63.141434 H 390.77577 V -98.858608 H -53.678503 Z" id="SvgjsPath1220" style="stroke-width:2.35678"></path>
    </clipPath>
    <clipPath clipPathUnits="userSpaceOnUse" id="SvgjsClipPath1219">
      <path d="M -96.762092,96.197936 H 347.69218 V -65.802106 H -96.762092 Z" id="SvgjsPath1218" style="stroke-width:2.35678"></path>
    </clipPath>
    <clipPath clipPathUnits="userSpaceOnUse" id="SvgjsClipPath1217">
      <path d="M -329.69259,110.72294 H 114.76168 V -51.277106 h -444.45427 z" id="SvgjsPath1216" style="stroke-width:2.35678"></path>
    </clipPath>
    <clipPath clipPathUnits="userSpaceOnUse" id="SvgjsClipPath1215">
      <path d="M -359.8453,127.16704 H 84.608974 V -34.833 H -359.8453 Z" id="SvgjsPath1214" style="stroke-width:2.35678"></path>
    </clipPath>
    <clipPath clipPathUnits="userSpaceOnUse" id="SvgjsClipPath1213">
      <path d="M -324.6888,103.45104 H 119.76547 V -58.549001 H -324.6888 Z" id="SvgjsPath1212" style="stroke-width:2.35678"></path>
    </clipPath>
    <clipPath clipPathUnits="userSpaceOnUse" id="SvgjsClipPath1211">
      <path d="M -350.2663,127.60324 H 94.18797 V -34.396799 H -350.2663 Z" id="SvgjsPath1210" style="stroke-width:2.35678"></path>
    </clipPath>
    <clipPath clipPathUnits="userSpaceOnUse" id="SvgjsClipPath1209">
      <path d="M -336.6339,119.41034 H 107.82037 V -42.589704 H -336.6339 Z" id="SvgjsPath1208" style="stroke-width:2.35678"></path>
    </clipPath>
    <clipPath clipPathUnits="userSpaceOnUse" id="SvgjsClipPath1207">
      <path d="M -359.5384,27.076649 H 84.915867 V -134.92339 H -359.5384 Z" id="SvgjsPath1206" style="stroke-width:2.35678"></path>
    </clipPath>
    <clipPath clipPathUnits="userSpaceOnUse" id="SvgjsClipPath1205">
      <path d="M -340.42299,33.061734 H 104.03128 V -128.93831 h -444.45427 z" id="SvgjsPath1204" style="stroke-width:2.35678"></path>
    </clipPath>
    <clipPath clipPathUnits="userSpaceOnUse" id="SvgjsClipPath1203">
      <path d="M -339.96949,121.91105 H 104.48478 V -40.088997 h -444.45427 z" id="SvgjsPath1202" style="stroke-width:2.35678"></path>
    </clipPath>
  </defs>
  <sodipodi:namedview id="SvgjsSodipodi:namedview1201" pagecolor="#ffffff" bordercolor="#000000" borderopacity="0.25" inkscape:showpageshadow="2" inkscape:pageopacity="0.0" inkscape:pagecheckerboard="0" inkscape:deskcolor="#d1d1d1" inkscape:zoom="1.6179768" inkscape:cx="47.281272" inkscape:cy="54.079886" inkscape:window-width="1366" inkscape:window-height="696" inkscape:window-x="0" inkscape:window-y="0" inkscape:window-maximized="1" inkscape:current-layer="g1">
    <inkscape:page x="0" y="0" inkscape:label="1" id="SvgjsInkscape:page1200" width="100" height="100" margin="0" bleed="0"></inkscape:page>
  </sodipodi:namedview>
  <g id="SvgjsG1199" inkscape:groupmode="layer" inkscape:label="1">
    <g id="SvgjsG1198"></g>
    <g id="SvgjsG1197" transform="translate(-62.335303,-56.913887)">
      <g clip-path="url(#clipPath3)" id="SvgjsG1196" transform="translate(-408.86094,-58.744388)">
        <path d="M 0,0 C -0.057,1.537 1.095,2.749 2.626,2.863 4.237,3.014 5.627,1.881 5.76,0.265 5.76,0.164 5.815,0.076 5.76,0 5.76,-1.536 4.62,-2.755 3.093,-2.912 1.547,-3.044 0.121,-1.871 0,-0.264 Z M 3.195,-4.548 C 5.588,-4.328 7.35,-2.333 7.35,0 V 0.362 C 7.141,2.863 4.931,4.691 2.444,4.448 0.09,4.261 -1.701,2.337 -1.654,0 v -0.424 c 0.211,-2.517 2.432,-4.337 4.849,-4.124" style="fill: rgb(15, 162, 226); fill-opacity: 1; fill-rule: nonzero; stroke: none; --darkreader-inline-fill: var(--darkreader-text-0fa2e2, #31b7f1); --darkreader-inline-stroke: none;" transform="matrix(0.56573467,0,0,-0.565748,511.45531,137.84804)" clip-path="url(#clipPath2)" id="SvgjsPath1195" data-darkreader-inline-fill="" data-darkreader-inline-stroke=""></path>
      </g>
      <path d="m 0,0 c 1.23,-0.669 2.432,-1.367 3.778,-2.004 l 0.807,1.335 C 2.722,0.293 0.974,1.394 -0.592,2.481 L -5.733,-5.062 C -3.783,-6.353 -2.002,-7.43 0,-8.586 l 0.829,1.332 -4.145,2.442 1.4,1.967 2.745,-1.651 0.8,1.283 c -0.882,0.485 -1.801,1.044 -2.763,1.633 z" style="fill: rgb(15, 162, 226); fill-opacity: 1; fill-rule: nonzero; stroke: none; --darkreader-inline-fill: var(--darkreader-text-0fa2e2, #31b7f1); --darkreader-inline-stroke: none;" transform="matrix(0.56573467,0,0,-0.565748,97.919592,130.14974)" clip-path="url(#clipPath92)" id="SvgjsPath1194" data-darkreader-inline-fill="" data-darkreader-inline-stroke=""></path>
      <path d="M 0,0 C 0.904,0.544 1.525,-0.622 1.488,-1.482 1.455,-1.758 1.353,-1.981 1.175,-2.07 l -1.906,-1.001 -0.919,1.589 -0.251,0.426 C -1.132,-0.622 -0.704,-0.368 0,0 m -0.024,-8.385 c 0.769,0.448 1.168,0.708 1.825,1.127 l -1.697,2.807 1.593,0.853 2.89,-2.112 c 0.741,0.323 1.213,0.572 1.834,0.863 l -3.298,2.4 C 3.324,-2.133 3.42,-1.823 3.449,-1.482 3.61,0.454 1.334,2.61 -0.28,1.72 -1.65,0.987 -3.072,0.259 -4.393,-0.579 l 0.502,-0.903 z" style="fill: rgb(15, 162, 226); fill-opacity: 1; fill-rule: nonzero; stroke: none; --darkreader-inline-fill: var(--darkreader-text-0fa2e2, #31b7f1); --darkreader-inline-stroke: none;" transform="matrix(0.56573467,0,0,-0.565748,98.176152,79.883422)" clip-path="url(#clipPath91)" id="SvgjsPath1193" data-darkreader-inline-fill="" data-darkreader-inline-stroke=""></path>
      <path d="M 0,0 0.798,-7.394 2.739,-7.19 1.979,0.149 4.915,0.329 4.804,1.977 C 1.525,1.788 0.174,1.656 -3.072,1.171 l 0.217,-1.564 z" style="fill: rgb(15, 162, 226); fill-opacity: 1; fill-rule: nonzero; stroke: none; --darkreader-inline-fill: var(--darkreader-text-0fa2e2, #31b7f1); --darkreader-inline-stroke: none;" transform="matrix(0.56573467,0,0,-0.565748,108.9904,76.497372)" clip-path="url(#clipPath90)" id="SvgjsPath1192" data-darkreader-inline-fill="" data-darkreader-inline-stroke=""></path>
      <path d="M 0,0 0.958,1.224 C -1.13,2.906 -2.796,4.292 -4.689,6.081 L -5.796,4.97 c 0.763,-0.678 1.364,-1.335 2.151,-2.064 l -4.97,-5.538 1.498,-1.298 4.806,5.703 C -1.545,1.169 -0.761,0.596 0,0" style="fill: rgb(15, 162, 226); fill-opacity: 1; fill-rule: nonzero; stroke: none; --darkreader-inline-fill: var(--darkreader-text-0fa2e2, #31b7f1); --darkreader-inline-stroke: none;" transform="matrix(0.56573467,0,0,-0.565748,96.032532,128.73497)" clip-path="url(#clipPath89)" id="SvgjsPath1191" data-darkreader-inline-fill="" data-darkreader-inline-stroke=""></path>
      <path d="M 0,0 C -0.198,-0.555 -0.747,-1.062 -1.316,-0.809 L -3.391,-0.033 -3.375,0 -3.193,0.526 -2.679,1.965 -0.403,1.126 C -0.09,0.984 0.012,0.78 0.066,0.526 0.125,0.342 0.066,0.153 0,0 M 0.381,2.479 -3.688,4.05 -5.182,0.526 -5.401,0 -7.237,-4.27 c 0.573,-0.282 1.158,-0.469 1.744,-0.663 l 1.449,3.51 1.787,-0.765 0.071,-3.977 c 0.659,-0.28 1.357,-0.485 1.975,-0.626 l -0.309,4.228 c 1.331,0.154 2.153,1.384 2.291,2.595 V 0.526 C 1.703,1.351 1.286,2.157 0.381,2.479" style="fill: rgb(15, 162, 226); fill-opacity: 1; fill-rule: nonzero; stroke: none; --darkreader-inline-fill: var(--darkreader-text-0fa2e2, #31b7f1); --darkreader-inline-stroke: none;" transform="matrix(0.56573467,0,0,-0.565748,103.74485,133.37009)" clip-path="url(#clipPath88)" id="SvgjsPath1190" data-darkreader-inline-fill="" data-darkreader-inline-stroke=""></path>
      <path d="m 0,0 -7.798,-4.554 c 0.28,-0.545 0.581,-1.187 0.923,-1.713 l 7.814,4.566 C 0.557,-1.013 0.342,-0.645 0,0" style="fill: rgb(15, 162, 226); fill-opacity: 1; fill-rule: nonzero; stroke: none; --darkreader-inline-fill: var(--darkreader-text-0fa2e2, #31b7f1); --darkreader-inline-stroke: none;" transform="matrix(0.56573467,0,0,-0.565748,89.274772,119.70603)" clip-path="url(#clipPath87)" id="SvgjsPath1189" data-darkreader-inline-fill="" data-darkreader-inline-stroke=""></path>
      <path d="M 0,0 -0.659,-5.518 -3.31,0.534 c -0.622,0.121 -1.009,0.281 -1.635,0.381 l -2.081,-8.924 c 0.644,-0.172 1.262,-0.24 1.925,-0.356 l 1.114,5.481 2.687,-6.107 C -0.69,-9.082 0,-9.274 0.71,-9.257 l 0.995,9.218 C 1.183,-0.01 0.563,-0.094 0,0" style="fill: rgb(15, 162, 226); fill-opacity: 1; fill-rule: nonzero; stroke: none; --darkreader-inline-fill: var(--darkreader-text-0fa2e2, #31b7f1); --darkreader-inline-stroke: none;" transform="matrix(0.56573467,0,0,-0.565748,109.16402,133.12331)" clip-path="url(#clipPath86)" id="SvgjsPath1188" data-darkreader-inline-fill="" data-darkreader-inline-stroke=""></path>
      <path d="m 0,0 -4.224,-3.651 2.153,6.257 c -0.381,0.536 -0.557,0.91 -0.956,1.403 l -7.571,-5.137 c 0.338,-0.509 0.753,-0.978 1.112,-1.504 l 4.552,3.154 -2.135,-6.304 c 0.37,-0.416 0.743,-1.054 1.266,-1.478 L 1.2,-1.253 C 0.813,-0.839 0.344,-0.469 0,0" style="fill: rgb(15, 162, 226); fill-opacity: 1; fill-rule: nonzero; stroke: none; --darkreader-inline-fill: var(--darkreader-text-0fa2e2, #31b7f1); --darkreader-inline-stroke: none;" transform="matrix(0.56573467,0,0,-0.565748,92.105592,123.82009)" clip-path="url(#clipPath85)" id="SvgjsPath1187" data-darkreader-inline-fill="" data-darkreader-inline-stroke=""></path>
      <path d="M 0,0 -6.628,3.651 -7.477,2.124 0.477,-2.317 3.543,3.177 2.176,3.909 Z" style="fill: rgb(15, 162, 226); fill-opacity: 1; fill-rule: nonzero; stroke: none; --darkreader-inline-fill: var(--darkreader-text-0fa2e2, #31b7f1); --darkreader-inline-stroke: none;" transform="matrix(0.56573467,0,0,-0.565748,138.81751,122.2825)" clip-path="url(#clipPath76)" id="SvgjsPath1186" data-darkreader-inline-fill="" data-darkreader-inline-stroke=""></path>
      <path d="m 0,0 -0.344,-0.424 -1.32,-1.705 -0.979,1.705 -1.07,1.691 z m -6.046,1.76 1.322,-2.184 3.574,-5.927 c 0.47,0.464 0.884,0.917 1.252,1.336 l -0.9,1.409 2.464,3.078 1.58,-0.569 c 0.125,0.264 0.313,0.47 0.469,0.673 0.192,0.27 0.36,0.526 0.571,0.794 L -4.74,3.334 Z" style="fill: rgb(15, 162, 226); fill-opacity: 1; fill-rule: nonzero; stroke: none; --darkreader-inline-fill: var(--darkreader-text-0fa2e2, #31b7f1); --darkreader-inline-stroke: none;" transform="matrix(0.56573467,0,0,-0.565748,135.84412,124.92409)" clip-path="url(#clipPath75)" id="SvgjsPath1185" data-darkreader-inline-fill="" data-darkreader-inline-stroke=""></path>
      <path d="M 0,0 0.419,1.414 C 1.238,1.207 1.752,1.077 2.503,0.788 2.988,0.682 3.113,0.361 3.113,0 c 0,-0.758 -0.735,-1.629 -1.291,-1.469 l -2.031,0.655 z m -0.608,-2.394 1.734,-0.533 0.47,-3.541 C 2.315,-6.751 2.794,-6.952 3.444,-7.221 L 2.906,-3.169 C 4.288,-2.858 4.968,-1.37 4.914,0 4.828,1.008 4.38,1.955 3.543,2.212 2.065,2.693 0.587,3.198 -0.968,3.584 L -2.045,0 -3.52,-5.028 c 0.8,-0.228 1.338,-0.318 2.065,-0.529 z" style="fill: rgb(15, 162, 226); fill-opacity: 1; fill-rule: nonzero; stroke: none; --darkreader-inline-fill: var(--darkreader-text-0fa2e2, #31b7f1); --darkreader-inline-stroke: none;" transform="matrix(0.56573467,0,0,-0.565748,120.22476,78.316532)" clip-path="url(#clipPath74)" id="SvgjsPath1184" data-darkreader-inline-fill="" data-darkreader-inline-stroke=""></path>
      <path d="M 0,0 1.963,3.781 7.26,6.242 C 6.703,6.642 6.101,6.922 5.541,7.29 L 1.893,5.627 1.22,9.589 C 0.458,9.95 0,10.109 -0.794,10.43 L 0.268,4.667 -1.697,0.933 Z" style="fill: rgb(15, 162, 226); fill-opacity: 1; fill-rule: nonzero; stroke: none; --darkreader-inline-fill: var(--darkreader-text-0fa2e2, #31b7f1); --darkreader-inline-stroke: none;" transform="matrix(0.56573467,0,0,-0.565748,125.04776,83.831552)" clip-path="url(#clipPath73)" id="SvgjsPath1183" data-darkreader-inline-fill="" data-darkreader-inline-stroke=""></path>
      <path d="M 0,0 0.915,1.946 1.525,0 2.01,-1.89 c -0.923,0.131 -1.838,0.241 -2.824,0.287 z M -1.478,-3.129 C -0.239,-3.182 0.97,-3.247 2.307,-3.454 L 2.831,-5.153 C 3.474,-5.191 4.004,-5.293 4.685,-5.42 L 3.215,0 2.151,4.033 0.125,4.242 -1.916,0 -4.167,-4.669 c 0.743,0 1.093,0 1.852,-0.008 z" style="fill: rgb(15, 162, 226); fill-opacity: 1; fill-rule: nonzero; stroke: none; --darkreader-inline-fill: var(--darkreader-text-0fa2e2, #31b7f1); --darkreader-inline-stroke: none;" transform="matrix(0.56573467,0,0,-0.565748,114.53901,77.870612)" clip-path="url(#clipPath72)" id="SvgjsPath1182" data-darkreader-inline-fill="" data-darkreader-inline-stroke=""></path>
      <path d="m 0,0 c -0.242,-0.972 -0.968,-1.662 -2.104,-1.339 l -8.525,2.471 c -0.813,0.235 -1.468,1.072 -1.4,2.112 3.052,15.881 -0.837,28.706 -10.144,39.008 -0.937,0.669 -1.025,2.046 -0.122,2.986 l 6.168,6.195 c 0.398,0.713 1.785,0.866 2.62,-0.158 C -1.619,38.772 4.388,19.551 0,0 m -2.639,-8.134 c -8.363,-21.258 -29.186,-36.379 -53.267,-36.379 -24.088,0 -44.816,15.017 -53.152,36.289 -0.482,1.179 0.071,1.996 0.992,2.329 l 8.486,2.913 c 0.454,0.166 1.652,0.166 2.143,-1.077 6.595,-16.524 22.932,-28.094 41.531,-28.094 18.575,0 34.617,11.31 41.507,27.836 0.61,1.501 1.775,1.501 2.221,1.335 l 8.533,-2.913 c 0.915,-0.333 1.439,-1.126 1.006,-2.239 m -108.929,8.101 c -4.394,19.584 1.596,38.74 13.454,51.222 0.939,0.957 2.032,0.957 2.632,0.269 l 6.189,-6.22 c 0.897,-0.94 0.798,-2.317 -0.143,-2.986 -9.292,-10.302 -13.175,-23.154 -10.119,-39.008 0.063,-1.04 -0.594,-1.877 -1.392,-2.112 l -8.511,-2.471 c -1.125,-0.323 -1.868,0.367 -2.11,1.306 m 87.502,38.142 c -0.139,-0.683 -0.868,-1.022 -1.51,-1.333 l -19.998,-9.653 c -0.765,-0.368 -1.502,-0.433 -2.118,-0.084 -0.561,0.338 -0.941,1.005 -0.991,1.847 l -1.582,22.206 c -0.086,0.996 0.037,1.66 0.467,2.004 0.417,0.368 1.041,0.241 1.58,0.101 9.599,-2.282 16.597,-6.314 23.411,-13.523 0.532,-0.523 0.764,-1.002 0.741,-1.381 0.023,-0.086 0,-0.141 0,-0.184 M -38.395,11.098 c -0.709,0.47 -1.071,1.121 -1.071,1.79 0,0.672 0.362,1.323 1.071,1.8 l 18.343,12.472 c 0.898,0.609 1.525,0.815 2.024,0.636 0.493,-0.22 0.767,-0.828 0.939,-1.417 2.8,-9.379 2.8,-17.488 0,-26.981 -0.235,-0.839 -0.601,-1.304 -1.025,-1.433 -0.626,-0.217 -1.314,0.25 -1.908,0.635 z m -11.855,-36.31 1.617,22.144 c 0.055,0.878 0.415,1.508 1.002,1.879 0.61,0.319 1.347,0.319 2.105,-0.039 l 20.005,-9.708 c 0.931,-0.438 1.369,-0.905 1.494,-1.421 0.133,-0.538 -0.313,-1.023 -0.719,-1.494 -6.82,-7.157 -13.819,-11.2 -23.361,-13.49 -0.852,-0.213 -1.407,-0.135 -1.746,0.131 -0.498,0.446 -0.412,1.273 -0.397,1.998 m -19.967,37.961 c 0,7.897 6.415,14.346 14.311,14.346 7.899,-0.029 14.321,-6.449 14.321,-14.346 0,-7.898 -6.422,-14.309 -14.321,-14.309 -7.896,0 -14.311,6.411 -14.311,14.309 m -17.129,-25.292 c 0.104,0.653 0.859,1.018 1.555,1.343 l 19.952,9.712 c 0.797,0.364 1.541,0.364 2.137,0.014 0.588,-0.339 0.907,-0.98 0.976,-1.821 0,0 1.626,-22.171 1.626,-22.204 0.073,-1.046 -0.051,-1.711 -0.483,-2.034 -0.424,-0.332 -1.024,-0.24 -1.636,-0.054 -9.565,2.244 -16.53,6.27 -23.409,13.505 -0.483,0.502 -0.741,0.976 -0.741,1.355 0,0.057 0.023,0.141 0.023,0.184 m 0.374,52.064 c 6.877,7.171 13.853,11.216 23.426,13.519 0.601,0.111 1.226,0.213 1.649,-0.151 0.385,-0.328 0.535,-0.956 0.447,-2.026 l -1.613,-22.158 c -0.051,-0.85 -0.414,-1.489 -0.977,-1.857 -0.603,-0.313 -1.342,-0.313 -2.135,0.066 l -19.974,9.703 c -0.665,0.312 -1.425,0.653 -1.51,1.322 -0.126,0.426 0.131,0.954 0.687,1.582 m 13.632,-24.99 c 0.681,-0.478 1.095,-1.102 1.095,-1.812 0,-0.653 -0.414,-1.304 -1.095,-1.761 L -91.669,-1.529 c -0.876,-0.604 -1.548,-0.794 -2.004,-0.604 -0.557,0.154 -0.768,0.764 -0.956,1.376 -2.777,9.404 -2.777,17.481 0,27.008 0.242,0.788 0.58,1.274 1.044,1.414 0.569,0.252 1.263,-0.23 1.916,-0.652 z m -18.173,42.992 c 9.754,7.768 22.187,12.54 35.583,12.54 13.476,0 25.734,-4.772 35.665,-12.504 1.285,-1.076 1.285,-2.081 0.614,-2.81 l -5.925,-6.595 c -0.866,-0.89 -1.751,-0.717 -2.932,0.155 -7.554,5.882 -17.158,9.339 -27.398,9.339 -10.229,0 -19.827,-3.47 -27.308,-9.339 -1.197,-0.936 -2.108,-1.045 -2.935,-0.155 l -5.921,6.595 c -0.662,0.729 -0.719,1.734 0.557,2.774 M 16.096,15.04 l -0.023,0.186 -0.196,0.116 c -3.064,1.815 -7.008,2.874 -10.963,2.958 -0.088,0.521 -0.558,4.188 -0.632,4.706 3.758,1.062 7.333,3.097 9.843,5.699 l 0.141,0.14 -0.029,0.174 c -0.182,1.42 -0.738,3.349 -1.215,4.538 l -0.078,0.197 -0.203,0.041 c -3.418,0.966 -7.548,0.945 -11.3,0 -0.26,0.47 -1.621,3.829 -1.824,4.336 3.347,2.044 6.265,4.909 8.04,8.005 l 0.117,0.171 -0.117,0.228 c -0.485,1.181 -1.478,2.9 -2.346,4.01 L 5.193,50.703 H 5.029 c -3.574,0.065 -7.516,-1.01 -11.005,-2.885 -0.343,0.425 -2.58,3.371 -2.893,3.8 2.69,2.784 4.802,6.341 5.694,9.847 l 0.062,0.18 -0.148,0.157 c -0.806,1.061 -2.23,2.542 -3.285,3.325 l -0.155,0.164 -0.156,-0.086 c -3.506,-0.861 -7.065,-2.942 -9.865,-5.662 -0.446,0.342 -3.418,2.666 -3.817,2.978 1.854,3.301 2.953,7.174 2.953,10.719 v 0.485 l -0.158,0.098 c -1.064,0.837 -2.795,1.83 -4.03,2.355 l -0.188,0.084 -0.18,-0.091 c -3.121,-1.769 -5.991,-4.669 -7.985,-8.014 -0.501,0.209 -4.099,1.714 -4.568,1.906 0.469,1.869 0.751,3.817 0.784,5.751 0,1.959 -0.256,3.845 -0.784,5.577 l -0.061,0.213 -0.15,0.06 c -1.226,0.536 -3.134,1.057 -4.544,1.214 l -0.172,0.053 -0.118,-0.127 c -2.589,-2.511 -4.622,-6.064 -5.729,-9.84 -0.528,0.053 -4.227,0.53 -4.796,0.658 0,3.852 -1.081,7.825 -2.949,10.91 l -0.109,0.163 -0.174,0.052 c -1.314,0.161 -3.312,0.161 -4.67,0 l -0.193,-0.052 -0.08,-0.163 c -1.858,-3.085 -2.922,-7.058 -3.004,-10.946 -0.506,-0.092 -4.294,-0.569 -4.821,-0.622 -1.082,3.776 -3.131,7.356 -5.702,9.857 l -0.159,0.137 -0.219,-0.027 c -1.362,-0.21 -3.302,-0.731 -4.466,-1.218 l -0.185,-0.049 -0.026,-0.217 c -0.526,-1.748 -0.766,-3.644 -0.766,-5.633 -0.03,-1.915 0.264,-3.848 0.735,-5.712 -0.495,-0.198 -4.098,-1.763 -4.585,-1.945 -2.03,3.345 -4.935,6.267 -8.023,8.014 l -0.209,0.091 -0.133,-0.084 c -1.255,-0.509 -3.013,-1.518 -4.052,-2.331 l -0.175,-0.122 v -0.52 c 0,-3.457 1.065,-7.346 2.972,-10.684 -0.411,-0.312 -3.183,-2.448 -3.586,-2.768 -2.769,2.692 -6.324,4.789 -9.849,5.691 l -0.159,0.032 -0.168,-0.105 c -1.05,-0.829 -2.487,-2.24 -3.355,-3.327 l -0.074,-0.155 0.039,-0.15 c 0.886,-3.504 2.935,-7.04 5.643,-9.862 -0.317,-0.419 -2.646,-3.568 -2.965,-3.95 -3.414,1.891 -7.369,2.988 -10.957,2.936 h -0.213 l -0.127,-0.16 c -0.778,-1.063 -1.768,-2.76 -2.32,-4.011 l -0.087,-0.187 0.087,-0.198 c 1.753,-3.119 4.699,-6.008 8.055,-8.038 -0.21,-0.502 -1.596,-3.849 -1.807,-4.311 -3.801,0.933 -7.937,0.961 -11.356,-0.047 l -0.186,-0.053 -0.059,-0.172 c -0.53,-1.184 -1.068,-3.091 -1.232,-4.517 l -0.035,-0.199 0.106,-0.125 c 2.539,-2.559 6.114,-4.609 9.86,-5.683 -0.06,-0.501 -0.53,-4.212 -0.612,-4.733 -3.953,-0.059 -7.929,-1.115 -11.021,-2.937 l -0.155,-0.085 -0.014,-0.213 c -0.086,-0.693 -0.112,-1.507 -0.112,-2.337 0,-0.849 0.026,-1.688 0.112,-2.33 l 0.014,-0.213 0.155,-0.101 c 3.092,-1.838 7.068,-2.859 11.021,-2.912 0.055,-0.528 0.612,-4.345 0.653,-4.874 -3.787,-1.123 -7.328,-3.154 -9.847,-5.722 l -0.125,-0.162 0.039,-0.217 c 0.211,-1.382 0.726,-3.347 1.193,-4.515 l 0.102,-0.156 0.168,-0.053 c 3.463,-0.97 7.577,-0.943 11.362,0 0.241,-0.473 1.66,-3.83 1.875,-4.343 -3.33,-1.996 -6.245,-4.88 -8.03,-8.005 l -0.08,-0.164 0.08,-0.186 c 0.534,-1.241 1.525,-2.994 2.354,-4.09 l 0.122,-0.121 h 0.189 c 3.545,-0.09 7.54,1.016 10.958,2.932 0.328,-0.451 2.647,-3.457 2.956,-3.875 -2.691,-2.763 -4.759,-6.32 -5.678,-9.804 l -0.051,-0.182 0.115,-0.187 c 0.855,-1.078 2.214,-2.45 3.269,-3.303 l 0.19,-0.123 0.178,0.055 c 3.455,0.885 7.031,2.925 9.839,5.631 0.421,-0.315 3.487,-2.644 3.893,-2.96 -1.841,-3.399 -2.915,-7.284 -2.915,-10.813 v -0.37 l 0.133,-0.133 c 1.093,-0.819 2.782,-1.789 4.065,-2.362 l 0.198,-0.053 0.164,0.092 c 3.097,1.723 6.032,4.675 8.063,8.074 0.476,-0.213 3.76,-1.545 4.245,-1.754 -0.485,-1.862 -0.754,-3.77 -0.754,-5.676 0,-1.946 0.269,-3.909 0.796,-5.659 l 0.062,-0.159 0.149,-0.072 c 1.243,-0.514 3.095,-1.058 4.505,-1.265 l 0.213,-0.031 0.136,0.131 c 2.574,2.544 4.617,6.1 5.656,9.814 0.527,-0.036 4.326,-0.577 4.864,-0.63 0.086,-3.919 1.167,-7.892 2.972,-10.971 l 0.122,-0.163 0.168,-0.027 c 1.364,-0.19 3.371,-0.19 4.622,0 l 0.213,0.027 0.1,0.163 c 1.865,3.079 2.941,7.052 3.003,10.971 0.509,0.105 4.114,0.594 4.585,0.63 1.064,-3.737 3.088,-7.313 5.731,-9.828 l 0.118,-0.147 0.211,0.03 c 1.369,0.238 3.334,0.725 4.497,1.21 l 0.188,0.102 0.025,0.174 c 0.475,1.756 0.812,3.699 0.812,5.643 -0.055,1.924 -0.337,3.871 -0.812,5.733 0.475,0.209 3.956,1.699 4.441,1.912 2.01,-3.342 4.951,-6.257 8.02,-8.044 l 0.208,-0.069 0.125,0.053 c 1.251,0.513 3.005,1.527 4.059,2.378 l 0.213,0.119 v 0.485 c 0,3.486 -1.112,7.344 -2.942,10.698 0.424,0.316 3.285,2.551 3.699,2.864 2.802,-2.708 6.406,-4.771 9.816,-5.68 l 0.26,-0.051 0.125,0.108 c 1.054,0.852 2.509,2.274 3.299,3.347 l 0.101,0.127 -0.055,0.182 c -0.836,3.506 -2.901,7.061 -5.623,9.865 0.313,0.41 2.62,3.459 2.935,3.871 3.455,-1.924 7.412,-2.976 10.957,-2.935 h 0.219 l 0.092,0.161 c 0.869,1.063 1.838,2.835 2.354,4.059 l 0.055,0.18 -0.086,0.172 c -1.65,3.075 -4.583,5.958 -7.899,8.054 0.141,0.485 1.54,3.818 1.72,4.288 3.786,-0.937 7.876,-0.974 11.349,0.025 l 0.18,0.029 0.063,0.194 c 0.555,1.23 1.055,3.125 1.251,4.536 v 0.165 l -0.102,0.16 c -2.503,2.587 -6.092,4.611 -9.796,5.678 0.074,0.505 0.505,4.093 0.6,4.595 3.972,0.11 7.931,1.148 10.995,2.972 l 0.196,0.1 0.023,0.182 c 0.094,0.672 0.133,1.517 0.133,2.357 0,0.865 -0.039,1.677 -0.133,2.345" style="fill: rgb(15, 162, 226); fill-opacity: 1; fill-rule: nonzero; stroke: none; --darkreader-inline-fill: var(--darkreader-text-0fa2e2, #31b7f1); --darkreader-inline-stroke: none;" transform="matrix(0.56573467,0,0,-0.565748,143.92819,114.14846)" clip-path="url(#clipPath71)" id="SvgjsPath1181" data-darkreader-inline-fill="" data-darkreader-inline-stroke=""></path>
      <path d="m 0,0 3.005,-8.58 c 0.585,0.204 1.213,0.381 1.805,0.64 L 1.895,0.6 C 1.095,0.329 0.727,0.219 0,0" style="fill: rgb(15, 162, 226); fill-opacity: 1; fill-rule: nonzero; stroke: none; --darkreader-inline-fill: var(--darkreader-text-0fa2e2, #31b7f1); --darkreader-inline-stroke: none;" transform="matrix(0.56573467,0,0,-0.565748,120.64957,131.91317)" clip-path="url(#clipPath70)" id="SvgjsPath1180" data-darkreader-inline-fill="" data-darkreader-inline-stroke=""></path>
      <path d="m 0,0 3.754,-4.047 -6.302,1.859 C -3.072,-2.587 -3.423,-2.726 -3.887,-3.13 l 5.485,-7.372 c 0.467,0.364 0.952,0.808 1.39,1.181 l -3.328,4.435 6.364,-1.917 c 0.439,0.38 1.062,0.808 1.492,1.348 L 1.168,1.257 C 0.829,0.89 0.438,0.407 0,0" style="fill: rgb(15, 162, 226); fill-opacity: 1; fill-rule: nonzero; stroke: none; --darkreader-inline-fill: var(--darkreader-text-0fa2e2, #31b7f1); --darkreader-inline-stroke: none;" transform="matrix(0.56573467,0,0,-0.565748,130.26445,126.20845)" clip-path="url(#clipPath69)" id="SvgjsPath1179" data-darkreader-inline-fill="" data-darkreader-inline-stroke=""></path>
      <path d="M 0,0 C -0.209,-0.225 -0.469,-0.436 -0.794,-0.596 -1.977,-1.285 -3.516,-1.042 -4.388,0 c -0.141,0.153 -0.235,0.297 -0.313,0.436 -0.277,0.444 -0.391,0.97 -0.422,1.439 0,1.029 0.5,2.026 1.48,2.552 1.39,0.798 3.174,0.346 3.927,-1.054 C 0.541,2.904 0.68,2.419 0.68,1.875 0.68,1.23 0.434,0.526 0,0 M -4.497,5.796 C -5.936,4.963 -6.719,3.481 -6.773,1.875 c 0.054,-0.624 0.18,-1.263 0.438,-1.843 0.086,-0.153 0.142,-0.29 0.187,-0.415 1.287,-2.18 4.028,-2.919 6.148,-1.682 0.87,0.503 1.494,1.256 1.916,2.097 0.258,0.58 0.391,1.219 0.391,1.843 -0.031,0.8 -0.219,1.582 -0.604,2.259 -1.269,2.152 -4.047,2.882 -6.2,1.662" style="fill: rgb(15, 162, 226); fill-opacity: 1; fill-rule: nonzero; stroke: none; --darkreader-inline-fill: var(--darkreader-text-0fa2e2, #31b7f1); --darkreader-inline-stroke: none;" transform="matrix(0.56573467,0,0,-0.565748,127.41502,133.37009)" clip-path="url(#clipPath68)" id="SvgjsPath1178" data-darkreader-inline-fill="" data-darkreader-inline-stroke=""></path>
      <path d="M 0,0 0.608,1.85 1.226,3.727 1.938,1.85 2.641,0.115 Z M 2.221,5.637 2.12,5.88 0.115,5.79 0.057,5.669 -1.15,1.85 -2.845,-3.183 c 0.624,0 1.21,-0.018 1.838,-0.073 l 0.45,1.611 3.93,0.11 0.606,-1.541 c 0.575,0.067 1.173,0.131 1.816,0.159 L 3.83,1.85 Z" style="fill: rgb(15, 162, 226); fill-opacity: 1; fill-rule: nonzero; stroke: none; --darkreader-inline-fill: var(--darkreader-text-0fa2e2, #31b7f1); --darkreader-inline-stroke: none;" transform="matrix(0.56573467,0,0,-0.565748,112.35872,136.55921)" clip-path="url(#clipPath67)" id="SvgjsPath1177" data-darkreader-inline-fill="" data-darkreader-inline-stroke=""></path>
      <path d="m 0,0 c -2.642,-0.579 -4.675,-1.06 -7.295,-1.467 l 0.243,-1.521 c 0.969,0.153 1.855,0.268 2.878,0.397 l 1.321,-7.33 1.946,0.367 -1.578,7.309 c 1.001,0.248 1.922,0.501 2.917,0.734 z" style="fill: rgb(15, 162, 226); fill-opacity: 1; fill-rule: nonzero; stroke: none; --darkreader-inline-fill: var(--darkreader-text-0fa2e2, #31b7f1); --darkreader-inline-stroke: none;" transform="matrix(0.56573467,0,0,-0.565748,119.43267,132.34671)" clip-path="url(#clipPath66)" id="SvgjsPath1176" data-darkreader-inline-fill="" data-darkreader-inline-stroke=""></path>
      <path d="m 0,0 c 0,3.738 2.425,7.017 6.021,8.108 0.035,0.387 0.134,2.332 0.134,2.332 h 4.331 c 0,0 0.104,-1.791 0.151,-2.176 C 14.389,7.327 17.115,3.918 17.115,0 17.115,-4.717 13.239,-8.589 8.527,-8.589 3.872,-8.589 0,-4.717 0,0 m 21.264,0.054 c 0,7.137 -5.748,12.934 -12.897,12.934 -7.102,0 -12.903,-5.797 -12.903,-12.934 0,-7.086 5.801,-12.913 12.903,-12.913 7.119,0 12.897,5.795 12.897,12.913" style="fill: rgb(15, 162, 226); fill-opacity: 1; fill-rule: nonzero; stroke: none; --darkreader-inline-fill: var(--darkreader-text-0fa2e2, #31b7f1); --darkreader-inline-stroke: none;" transform="matrix(0.56573467,0,0,-0.565748,107.56667,106.96635)" clip-path="url(#clipPath65)" id="SvgjsPath1175" data-darkreader-inline-fill="" data-darkreader-inline-stroke=""></path>
      <path d="m 0,0 c 1.111,0 2.174,-0.283 3.203,-0.841 1.014,-0.549 1.821,-1.345 2.405,-2.385 0.579,-1.031 0.877,-2.122 0.877,-3.25 0,-1.13 -0.298,-2.202 -0.866,-3.224 -0.57,-1.019 -1.371,-1.827 -2.387,-2.394 -1.024,-0.573 -2.098,-0.858 -3.232,-0.858 -1.118,0 -2.196,0.282 -3.219,0.858 -1.025,0.567 -1.824,1.375 -2.391,2.394 -0.569,1.022 -0.86,2.094 -0.86,3.224 0,1.128 0.291,2.225 0.871,3.25 0.588,1.044 1.386,1.83 2.408,2.385 C -2.173,-0.289 -1.103,0 0,0 m 0.016,-1.275 c -0.891,0 -1.746,-0.221 -2.566,-0.663 -0.817,-0.442 -1.462,-1.087 -1.931,-1.924 -0.468,-0.829 -0.707,-1.703 -0.707,-2.614 0,-0.911 0.227,-1.777 0.69,-2.599 0.457,-0.819 1.098,-1.464 1.918,-1.926 0.825,-0.469 1.689,-0.694 2.596,-0.694 0.912,0 1.768,0.227 2.59,0.694 0.824,0.462 1.458,1.111 1.921,1.926 0.469,0.824 0.697,1.688 0.697,2.599 0,0.911 -0.242,1.785 -0.713,2.614 -0.47,0.837 -1.111,1.482 -1.927,1.924 -0.819,0.442 -1.681,0.663 -2.568,0.663 m -2.94,-8.67 v 6.875 h 1.399 c 1.308,0 2.038,-0.008 2.199,-0.017 0.46,-0.03 0.827,-0.143 1.083,-0.28 0.256,-0.137 0.466,-0.352 0.638,-0.651 0.176,-0.299 0.257,-0.63 0.257,-0.984 0,-0.5 -0.169,-0.925 -0.488,-1.275 C 1.839,-6.634 1.381,-6.844 0.802,-6.928 1.013,-7.004 1.173,-7.096 1.284,-7.19 1.398,-7.288 1.545,-7.463 1.749,-7.727 1.796,-7.786 1.969,-8.064 2.258,-8.553 l 0.813,-1.392 h -1.73 l -0.574,1.121 c -0.393,0.749 -0.71,1.218 -0.962,1.415 -0.245,0.192 -0.578,0.29 -0.972,0.29 h -0.358 v -2.826 z m 1.399,3.911 h 0.563 c 0.808,0 1.311,0.033 1.505,0.09 0.197,0.055 0.352,0.164 0.464,0.324 0.104,0.157 0.168,0.337 0.168,0.522 0,0.2 -0.064,0.368 -0.168,0.509 -0.112,0.15 -0.267,0.268 -0.472,0.334 -0.198,0.065 -0.701,0.094 -1.497,0.094 h -0.563 z" style="fill: rgb(15, 162, 226); fill-opacity: 1; fill-rule: nonzero; stroke: none; --darkreader-inline-fill: var(--darkreader-text-0fa2e2, #31b7f1); --darkreader-inline-stroke: none;" transform="matrix(0.56573467,0,0,-0.565748,145.41375,136.31368)" clip-path="url(#clipPath64)" id="SvgjsPath1174" data-darkreader-inline-fill="" data-darkreader-inline-stroke=""></path>
    </g>
  </g>
</svg><style>@media (prefers-color-scheme: light) { :root { filter: none; } }
@media (prefers-color-scheme: dark) { :root { filter: none; } }
</style></svg>